/* XPM */
static char *YmxhY2tob2xlMS04[] = {
/* columns rows colors chars-per-pixel */
"64 64 243 2 ",
"   c #040607",
".  c #050508",
"X  c #07070A",
"o  c #09090D",
"O  c #0C0B11",
"+  c #0E0D14",
"@  c #0E0F16",
"#  c #0C1219",
"$  c #0D101A",
"%  c #0B141E",
"&  c #0B1421",
"*  c #081720",
"=  c #091723",
"-  c #0B1625",
";  c #0D1429",
":  c #0B172E",
">  c #0C1828",
",  c #0E1A2C",
"<  c #091A32",
"1  c #0C1D31",
"2  c #0A1C36",
"3  c #0B1E39",
"4  c #0C1F3E",
"5  c #0A223E",
"6  c #112236",
"7  c #0F2143",
"8  c #0A2740",
"9  c #0A2A47",
"0  c #112646",
"q  c #172A47",
"w  c #15274E",
"e  c #10294B",
"r  c #152D4F",
"t  c #0B364A",
"y  c #162D53",
"u  c #1A2D56",
"i  c #0D3254",
"p  c #0C3A58",
"a  c #0B3F5D",
"s  c #1F3454",
"d  c #14345A",
"f  c #1D325D",
"g  c #19365C",
"h  c #263A5D",
"j  c #1A3764",
"k  c #143861",
"l  c #133D68",
"z  c #1C3C69",
"x  c #1A3F72",
"c  c #213A64",
"v  c #283F66",
"b  c #0E456A",
"n  c #124A62",
"m  c #1F426C",
"M  c #0D4B72",
"N  c #124270",
"B  c #144575",
"V  c #1A4672",
"C  c #194E74",
"Z  c #114C7A",
"A  c #1C497B",
"S  c #2A416C",
"D  c #324567",
"F  c #30486F",
"G  c #374B6E",
"H  c #224372",
"J  c #274772",
"K  c #2D4A77",
"L  c #244C7B",
"P  c #384E74",
"I  c #2C517D",
"U  c #3E5275",
"Y  c #36547E",
"T  c #39527A",
"R  c #435779",
"E  c #1E4F80",
"W  c #145180",
"Q  c #1D5C81",
"!  c #16558A",
"~  c #1F5B89",
"^  c #1D5890",
"/  c #215385",
"(  c #2F5B8D",
")  c #325785",
"_  c #3C5881",
"`  c #1D6897",
"'  c #3B628F",
"]  c #236394",
"[  c #266D99",
"{  c #2C6F9F",
"}  c #336291",
"|  c #3F6695",
" . c #33699A",
".. c #39719E",
"X. c #2073A9",
"o. c #2779AA",
"O. c #3376A6",
"+. c #475C80",
"@. c #425E87",
"#. c #496085",
"$. c #43648D",
"%. c #516488",
"&. c #556A8D",
"*. c #456B95",
"=. c #516D94",
"-. c #4A709A",
";. c #5A7092",
":. c #50739A",
">. c #5E7699",
",. c #627393",
"<. c #667897",
"1. c #667C9E",
"2. c #4572A1",
"3. c #4B76A1",
"4. c #4179A6",
"5. c #457EA9",
"6. c #4D7EA9",
"7. c #547CA6",
"8. c #5C7AA0",
"9. c #1E85B0",
"0. c #2C82B5",
"q. c #348CB8",
"w. c #6E809B",
"e. c #5083AE",
"r. c #5886AD",
"t. c #4284B0",
"y. c #468DBB",
"u. c #518CB4",
"i. c #5C8CB3",
"p. c #5091BC",
"a. c #5893BB",
"s. c #5E95BB",
"d. c #6382A3",
"f. c #6D84A4",
"g. c #6F88A7",
"h. c #6388AB",
"j. c #6B8BAF",
"k. c #7586A0",
"l. c #798BA3",
"z. c #788DA7",
"x. c #708FAE",
"c. c #7A8FAC",
"v. c #678DB1",
"b. c #6492B4",
"n. c #6D92B1",
"m. c #6B96B8",
"M. c #679ABF",
"N. c #7494B1",
"B. c #7C96B1",
"V. c #749CB9",
"C. c #7F9EBA",
"Z. c #7BA2BE",
"A. c #2695CC",
"S. c #2E9FCE",
"D. c #3291C2",
"F. c #3C9FCA",
"G. c #22A9D4",
"H. c #4695C2",
"J. c #479FCB",
"K. c #559BC4",
"L. c #609CC2",
"P. c #6F9EC0",
"I. c #41AAD6",
"U. c #59A7D1",
"Y. c #41B7DF",
"T. c #50B2DA",
"R. c #5CB7DD",
"E. c #67A1C7",
"W. c #66A7CB",
"Q. c #72A2C2",
"!. c #7CA8C4",
"~. c #75ACCA",
"^. c #67ADD2",
"/. c #73AED1",
"(. c #7CB6D2",
"). c #7AB6D9",
"_. c #68BBE0",
"`. c #3AC2E9",
"'. c #4EC5EA",
"]. c #6CC6E5",
"[. c #7FD0ED",
"{. c #8091AA",
"}. c #8696AB",
"|. c #8496AE",
" X c #8A98AD",
".X c #849AB3",
"XX c #859EB7",
"oX c #8A99B2",
"OX c #8D9EB5",
"+X c #8FA1B4",
"@X c #89A2B9",
"#X c #8BA3BB",
"$X c #91A2B5",
"%X c #92A2B7",
"&X c #92A4B9",
"*X c #92A5BA",
"=X c #94A6BB",
"-X c #96A8BD",
";X c #99A8BE",
":X c #9BABBF",
">X c #9CA9BC",
",X c #85A7C1",
"<X c #84ABC6",
"1X c #87AEC4",
"2X c #91A8C0",
"3X c #90AEC5",
"4X c #99AEC1",
"5X c #8CB1C6",
"6X c #81B0CE",
"7X c #8BB3CC",
"8X c #9EB0C5",
"9X c #95B7CB",
"0X c #92B6CF",
"qX c #96B6CD",
"wX c #98B7CD",
"eX c #9EB7CD",
"rX c #89B9D6",
"tX c #99BCD4",
"yX c #A0B1C4",
"uX c #A0B3C6",
"iX c #A3B2C6",
"pX c #A3B4C7",
"aX c #ABB7CE",
"sX c #A5B8CD",
"dX c #ABBBCE",
"fX c #A5BFD0",
"gX c #9DC1D6",
"hX c #93C0D8",
"jX c #99C4D8",
"kX c #ABC0D2",
"lX c #ACC0D2",
"zX c #A9C4D7",
"xX c #AAC9DD",
"cX c #B4CADB",
"vX c #85C4E0",
"bX c #97C8E1",
"nX c #92D2EB",
"mX c #9DD7EE",
"MX c #ADD3E3",
"NX c #AFDDED",
"BX c #A8D9F0",
"VX c #B8E3EB",
"CX c None",
/* pixels */
"CXCXCXCXCXCXCXCXCXCXCXCXCXCXCXCXCXCXCXCXCXCXCXCXCXCXCXCXCXCXCXCXCXCXCXCXCXCXCXCXCXCXCXCXCXCXCXCXCXCXCXCXCXCXCXCXCXCXCXCXCXCXCXCX",
"CXCXCXCXCXCXCXCXCXCXCXCXCXCXCXCXCXCXCXCXCXCXCXCXCXCXCXCXCXCXCXCXCXCXCXCXCXCXCXCXCXCXCXCXCXCXCXCXCXCXCXCXCXCXCXCXCXCXCXCXCXCXCXCX",
"CXCXCXCXCXCXCXCXCXCXCXCXCXCXCXCXCXCXCXCXCXCXCXCXCXCXCXCXCXCXCXCXCXCXCXCXCXCXCXCXCXCXCXCXCXCXCXCXCXCXCXCXCXCXCXCXCXCXCXCXCXCXCXCX",
"CXCXCXCXCXCXCXCXCXCXCXCXCXCXCXCXCXCXCXCXCXCXCXCXCXCX4XyX}.B.8X|.l.;XoXB.tXfX+XCXCXCXCXCXCXCXCXCXCXCXCXCXCXCXCXCXCXCXCXCXCXCXCXCX",
"CXCXCXCXCXCXCXCXCXCXCXCXCXCXCXCXCXCXCXCXCXCXCX-XXXXX<XC.l.B.Z.Z.N.l.k.z.C.<X7XhXbXzXCXCXCXCXCXCXCXCXCXCXCXCXCXCXCXCXCXCXCXCXCXCX",
"CXCXCXCXCXCXCXCXCXCXCXCXCXCXCXCXCXCXCXCX5X,XhXZ.g.C.V.b.x.g.i.E./.8.<.z.d.n.rX(.(.mXhX1XCXCXCXCXCXCXCXCXCXCXCXCXCXCXCXCXCXCXCXCX",
"CXCXCXCXCXCXCXCXCXCXCXCXCXCXCXCXCXCXqX!.rXrXP.Q.Q.i.L.E.i.7.8.7.e.i.>.%.1.h.i./.vX~.vXbX7XqXCXCXCXCXCXCXCXCXCXCXCXCXCXCXCXCXCXCX",
"CXCXCXCXCXCXCXCXCXCXCXCXCXCXCXCXjXbXrX~.).).^.W.s.K.U.K.e.p.p.*.@.*.*.+.%.=.:.s.E.M.~.vX6X7XwX-XCXCXCXCXCXCXCXCXCXCXCXCXCXCXCXCX",
"CXCXCXCXCXCXCXCXCXCXCXCXCXCXCXtXbX~.6XvX^.U._.U.H.U.T.I.y.H.D.y.' F T @.P T &.-.6.M.b.^.vX6XN.2XsX+XCXCXCXCXCXCXCXCXCXCXCXCXCXCX",
"CXCXCXCXCXCXCXCXCXCXCXCXCXCXqX,XN.V.m.L.U.K.y.H.J.F.I.Y.I.D.S.0.o.( K S I P G T *.3.7.L.^.Q.Z.B.XXeXyXCXCXCXCXCXCXCXCXCXCXCXCXCX",
"CXCXCXCXCXCXCXCXCXCXCXCXCX<XhX6XL.P.v.3.3.*.Y ) }  .0.D.A.A.S.A.o.X.^ c H L S D P Y | e.p.L.P.n.N.0X3X+XCXCXCXCXCXCXCXCXCXCXCXCX",
"CXCXCXCXCXCXCXCXCXCXCXCX2X7Xn.m.v.$.#.+.T D D h h h A ] X.0.A.A.0.` ^ x f E E H h F ) ) e.a.e.m.!.n.@XsX$XCXCXCXCXCXCXCXCXCXCXCX",
"CXCXCXCXCXCXCXCXCXCXCXOX{.c.f.,.%.R R G F v c c e q 0 f W ! ^ X.X.! B f w x ! A z h S K | 2.e.r.b.x.c..X=XyXCXCXCXCXCXCXCXCXCXCX",
"CXCXCXCXCXCXCXCXCXCX X%Xw.,.<.%.P _ T S S c f f y 3 4 w w l B x B j u w 4 w x x x y c S K ) 2.2.3.g.f.f.2X8X*XCXCXCXCXCXCXCXCXCX",
"CXCXCXCXCXCXCXCXCX>X Xw.k.<.+.+.R v v H j j f e 3 1 3 4 u z B u w 4 2 3 2 2 w j f y f u v K K $.7.%.1.B.z.|.sX4XCXCXCXCXCXCXCXCX",
"CXCXCXCXCXCXCXCX*X2XB.f.1.;.@._ ) J v c u 0 3 1 : : ; ; < e l y 3 2 : ; : : 2 w w e y w s h v T | #.;.f.g.{.;X;XCXCXCXCXCXCXCXCX",
"CXCXCXCXCXCXCXCXsXz.w.w.%.R R D h m z j j u w 7 4 3 2 : ; : < < < : ; - ; : ; 2 w 7 u w q u S S K #.%.&.N.{.z.;XcXCXCXCXCXCXCXCX",
"CXCXCXCXCXCXCX-X{.{.w.&.%.R F J c q 0 0 w y d d y 5 < : < 2 : % $ % - & & , ; ; 2 7 u u 0 y j h K P +.&.,.w.|.oX$XCXCXCXCXCXCXCX",
"CXCXCXCXCXCXdXOXk.c.1.#.R R J / / Z Z B N N M M M M p 2 % % ; ; % $ $ & $ = ; ; 3 2 7 u 5 w f f S J U %.=.,.{.c. XlXCXCXCXCXCXCX",
"CXCXCXCXCXCX}.oX|.,.%.%.T K ( / B B ! ` ` W b a a i 9 5 : % $ % > ; $ $ $ - - - 3 1 2 w 7 7 f y f K G P ;.<.,.|.;X XCXCXCXCXCXCX",
"CXCXCXCXCXCX%X{.w.,.&.@.)  .X.] ! ` ~ l d p a a p 9 3 > - = * $ $ > > $ @ $ = = ; 4 ; 7 7 7 7 e f H D U +.&.1.z..X=XpXCXCXCXCXCX",
"CXCXCXCXCX%X;Xl.;.<.%.Y ( O.] W N y r i i 9 5 3 2 1 > % $ @ @ $ % % > - $ @ $ % % 4 ; < 3 4 4 7 f z S U U %.f.f.c.eXeXCXCXCXCXCX",
"CXCXCXCXCX8Xk.k.g.:.-.2.} E V j r y 0 < : 1 1 > & @ O O O O O O + # % % % @ + $ $ : 2 ; : < 3 4 y z v S @.=.=.n.,XZ.wXzXCXCXCXCX",
"CXCXCXCXCX=Xz.g.h.e.*.} J z V g 0 : - - - > % + O O o O O o o o o O + # $ % $ $ + - 2 ; - : 3 3 0 j H L | *.:.h.Z.7XwXlXCXCXCXCX",
"CXCXCXCX%Xc.#Xj.7.7._ S H V j y : % = - = @ + O O O o O O O o X o o o O $ # # + $ & 2 < & ; 2 2 7 f E ( ( ' 8.d.m.bX0X=XCXCXCXCX",
"CXCXCXCX;X#Xx.h.>.R U J c j d ; & - , & @ O O O O O o o X X o X o o X o O # $ + $ # < 5 & & : < 3 j ^ / ( $.$.8.Q.!.7XxXdXCXCXCX",
"CXCXCXCX=XOXf.<.&.U D h h g 5 > : 2 & @ + + + O O O O O o X X .   . . o o @ $ + @ # , 5 & & ; < 2 g ^ E ) _ $.8.Q.Q.7XxXkXCXCXCX",
"CXCXCXCX Xk.c.,.R R D s c q 5 5 5 - $ + + @ + O O o X . . . . .   . X o o O @ $ + @ > 3 = % ; < 3 k ! / H Y -.7.s.6X7X3XcXCXCXCX",
"CXCXCX+XOX{.w.>.&.U F m z r e e , & $ @ # + O o X . . . . . .   . . . X X o O @ O + - 1 & & ; : 2 l ! A L ( *.r.M.P.7XwX8XCXCXCX",
"CXCXCX+X%XoX,.>.%._ K L z f d 2 = % @ $ @ O X . . . . . . . . . . .   . . . o @ O O = > & & - : 2 N W E ( } | a.P.m.,XsX%XCXCXCX",
"CXCXCXdX Xw.c.;.$.| I E j j 5 > & $ @ @ O o X . X . . . . . X X X . . . . . o @ O @ * * & = & 1 7 N Z ~ / ( 6.p.a.<X|.{.kXCXCXCX",
"CXCXCX4XOXl.f.>.-.*.I A m 7 , = % $ @ O O o X X . . X X X . . . X . . . . . o @ O # * % = & - : r l W / } } y.K.W.N.|.OXsXCXCXCX",
"CXCXCX+X*XXX>.8.7.' K ) y 1 , - % $ @ + + o . o . o X X   . .     . X . . . o + + # * % - = - < d N Z ~ { ..y.R./.d.{.sX=XCXCXCX",
"CXCXCXdXOXz.g.8.-.$.) H q 6 , > = = $ @ O o o X X o . . .         . X . . . o O @ # % * - & & 5 l l B ] { t.T.U.r.c.|.OXlXCXCXCX",
"CXCXCXdXOXz.k.8.-.$.) h q 6 1 , > > # @ O o o o o . . . .       . . . . . X O O @ # % = = & ; y k j V o.D.I.R.u.d.c.|.#XlXCXCXCX",
"CXCXCXCX=XoX<.d.;._ F J q 6 6 3 1 = $ @ O O O + o . . . .     . X X X X . o O + + # # = = = 3 y y j ` G.`.'.H.r.g.w..XlX*XCXCXCX",
"CXCXCXCX%X.XV.h.=.R T J r 7 8 5 2 & $ @ + O O @ O . . . .   . . X X X . X O O + @ @ % - & : 7 4 e W G.'.'.F.3.;.1.c.OX%XsXCXCXCX",
"CXCXCXCX%XXXrXm.:.#.T J s r 9 5 1 % $ $ + O O # + X o X . . . . . . . . X O O + O @ - = > 3 < 5 l 9.`.`.q.| &.;.<.OXOX XMXCXCXCX",
"CXCXCXCXpXgXQ.Q.n.R T Y s r e 6 1 - $ $ + + + # @ o o o X . . . . . . X o O O O @ = = > < ; , i ] S.D.0. .+.@.1.c.k.+XkXCXCXCXCX",
"CXCXCXCXpXhXZ.M.h.%._ T s s r 6 1 = $ % @ @ + # @ + O O O X . . . X o o O o O @ % * > 1 - : w Z 9.X.D.{ T +.&.1.z.|.-XkXCXCXCXCX",
"CXCXCXCXCX3X2XV.>.>.+.K D h r 5 1 - % & @ $ @ # # @ + O + O o o X o o O o O @ # * , , = > 9 b ` ] X.] T P @.1.1.w.8XeXuXCXCXCXCX",
"CXCXCXCXCXlX{.B.g.;.+.R v h g q 5 , & & % $ # # # @ # + + @ + + O O O + @ # % = , = % : 8 k Z Z W V S K $.=.;.k..X.XgXCXCXCXCXCX",
"CXCXCXCXCXuX X.Xz.>.%.+.D h c y e 1 > & = % % % * @ $ % @ @ # # # # # # % * % = * % : e b M N g u v K _ =.;.,.z.OX#XlXCXCXCXCXCX",
"CXCXCXCXCXCXsXXXw.k.;.U U D c j g 5 2 , 1 = = > * % @ % = % # % * * % % % % = = 2 7 b Q Q Z j f v H ) *.#.;.B.z.c.xXzXCXCXCXCXCX",
"CXCXCXCXCXCX%X-X.Xw.,.&.R G K z z d e e 5 , & > 1 1 > = > , , = = = * * - > 2 9 b Q Z b l j g g c G U #.8.j.N.1XgXgXCXCXCXCXCXCX",
"CXCXCXCXCXCXCX-XwXw.<.1.R U Y J m C d l r 0 > = , 8 8 6 , 1 8 9 t t t t p n C C b i y d y r z H L @.$.-.m.Q.V.hXNX9XCXCXCXCXCXCX",
"CXCXCXCXCXCXCX4XXX-Xc.;.;.%.Y ) I Q V ~ l i 9 , - 1 8 9 8 8 t p a a n n n a i y r r r 0 y m A } ....6.L.s.Q.bXhXgXCXCXCXCXCXCXCX",
"CXCXCXCXCXCXCXCX9X3XB.f.<.&.+.|  .[ ] [ Q b l e 3 , 1 5 8 5 5 9 p n a a a p i e 5 5 e y z A  .O.5.6.a.W.(.vXmXNXMXCXCXCXCXCXCXCX",
"CXCXCXCXCXCXCXCXCX#X.XXX1.&.,.3. .t.q.{ o.C W l i e e 5 5 5 5 3 5 9 i p k d y u y d B [ 0.D.J.y.t.K.E.W.nXmXbXVXCXCXCXCXCXCXCXCX",
"CXCXCXCXCXCXCXCXCXzX=Xz.c.g.=.i.p.H.F.F.{ o.V E j k l k d 9 5 0 0 7 5 7 e u l Z ` q.S.S.F.H.y.a.L.b.~.jX6XhXNXCXCXCXCXCXCXCXCXCX",
"CXCXCXCXCXCXCXCXCXCXyX|..Xc.1.b.i.H.J.Y.q.0.[ E B m z N d d d e 9 r y d k B / ] ` { O.O.4.5.3.r.b.v.V.0X0XgXCXCXCXCXCXCXCXCXCXCX",
"CXCXCXCXCXCXCXCXCXCXCXaX|.N.C.Q.r.M.U.I.I.F.F.{ E C m m l k g k l V N j j m A ( { { ..4.*.-.h.h.d.XXXX.XxXCXCXCXCXCXCXCXCXCXCXCX",
"CXCXCXCXCXCXCXCXCXCXCXCX-X3XC.!.P.h.b.K.T.T.Y.Y.O.I L V V H V C C V A A E E I ) } 5.t.6.r.i.h.j.|.{.#XsXCXCXCXCXCXCXCXCXCXCXCXCX",
"CXCXCXCXCXCXCXCXCXCXCXCXCX8XXX#X(.h.b.L.K.J.'.'.Y.q.) J K K m J K L / } } ..t.5.2.e.u.e.v.n.z.XX3X.XyXCXCXCXCXCXCXCXCXCXCXCXCXCX",
"CXCXCXCXCXCXCXCXCXCXCXCXCXCXzX3XC.7X!.h.P.E.K.R.].I.y.*.T ) @.T K T | ..5.6.5.u.i.7.i.P.b.N.3XXX|.lXCXCXCXCXCXCXCXCXCXCXCXCXCXCX",
"CXCXCXCXCXCXCXCXCXCXCXCXCXCXCXCXqX7X1X!.Q.P.M.W._.].R.a.-.*.*.*.-.*.*.-.u.a.a.K.P.L.m.N.B..XOX;XyXCXCXCXCXCXCXCXCXCXCXCXCXCXCXCX",
"CXCXCXCXCXCXCXCXCXCXCXCXCXCXCXCXCX5X0XgXZ.Q.rX/.W.[.].R._.L.e.i.M.u.K.^.W.W.).P.v.<XXXc.2X4X}.CXCXCXCXCXCXCXCXCXCXCXCXCXCXCXCXCX",
"CXCXCXCXCXCXCXCXCXCXCXCXCXCXCXCXCXCXCX9XwX0X!.vXnX].[.[.].^.).E.M.)./.E.(.).Q.!.,Xz.OX4X-X4XCXCXCXCXCXCXCXCXCXCXCXCXCXCXCXCXCXCX",
"CXCXCXCXCXCXCXCXCXCXCXCXCXCXCXCXCXCXCXCXCXzX2XhXnXvXvXnXnX).6XV.Z.(.vX(.(.<XC.#X-XOX2XCXCXCXCXCXCXCXCXCXCXCXCXCXCXCXCXCXCXCXCXCX",
"CXCXCXCXCXCXCXCXCXCXCXCXCXCXCXCXCXCXCXCXCXCXCXCX7XBXhX<XbXnX(.bXhXZ.rXmX5X,XgX%XCXCXCXCXCXCXCXCXCXCXCXCXCXCXCXCXCXCXCXCXCXCXCXCX",
"CXCXCXCXCXCXCXCXCXCXCXCXCXCXCXCXCXCXCXCXCXCXCXCXCXCXCXCXCX4XjXjXjXMXMXjXCXCXCXCXCXCXCXCXCXCXCXCXCXCXCXCXCXCXCXCXCXCXCXCXCXCXCXCX",
"CXCXCXCXCXCXCXCXCXCXCXCXCXCXCXCXCXCXCXCXCXCXCXCXCXCXCXCXCXCXCXCXCXCXCXCXCXCXCXCXCXCXCXCXCXCXCXCXCXCXCXCXCXCXCXCXCXCXCXCXCXCXCXCX",
"CXCXCXCXCXCXCXCXCXCXCXCXCXCXCXCXCXCXCXCXCXCXCXCXCXCXCXCXCXCXCXCXCXCXCXCXCXCXCXCXCXCXCXCXCXCXCXCXCXCXCXCXCXCXCXCXCXCXCXCXCXCXCXCX",
"CXCXCXCXCXCXCXCXCXCXCXCXCXCXCXCXCXCXCXCXCXCXCXCXCXCXCXCXCXCXCXCXCXCXCXCXCXCXCXCXCXCXCXCXCXCXCXCXCXCXCXCXCXCXCXCXCXCXCXCXCXCXCXCX"
};
