/* XPM */
static char *YmxhY2tob2xlMy04[] = {
/* columns rows colors chars-per-pixel */
"64 64 244 2 ",
"   c #040607",
".  c #050508",
"X  c #06070A",
"o  c #08080C",
"O  c #0A090F",
"+  c #0C0C12",
"@  c #0E0D14",
"#  c #0E0F16",
"$  c #0D1019",
"%  c #0B141B",
"&  c #0C121C",
"*  c #0A151F",
"=  c #0B1422",
"-  c #091722",
";  c #0B1625",
":  c #0B1927",
">  c #0D1629",
",  c #0B162E",
"<  c #0D192A",
"1  c #0B1A2F",
"2  c #0E1C2D",
"3  c #091A34",
"4  c #0C1E35",
"5  c #0A1C39",
"6  c #0B2437",
"7  c #0B203D",
"8  c #13253E",
"9  c #0F2242",
"0  c #092641",
"q  c #0D2947",
"w  c #0F2B4D",
"e  c #112446",
"r  c #15274D",
"t  c #1C2F4C",
"y  c #0D324F",
"u  c #152D52",
"i  c #1A2F59",
"p  c #0D3456",
"a  c #0B3E5D",
"s  c #173057",
"d  c #1D3256",
"f  c #17335B",
"g  c #15365F",
"h  c #1E345E",
"j  c #283C5A",
"k  c #1D3767",
"l  c #133B65",
"z  c #1D3962",
"x  c #173D6A",
"c  c #263A61",
"v  c #223C65",
"b  c #233F6C",
"n  c #0E4469",
"m  c #134860",
"M  c #1D406E",
"N  c #0D4A70",
"B  c #174372",
"V  c #114877",
"C  c #1A4A7D",
"Z  c #165571",
"A  c #16507A",
"S  c #2C4165",
"D  c #2B426B",
"F  c #30466C",
"G  c #364A6E",
"H  c #214776",
"J  c #294570",
"K  c #274B78",
"L  c #214F7C",
"P  c #304B76",
"I  c #3A4E72",
"U  c #3A5177",
"Y  c #30517D",
"T  c #3A547E",
"R  c #425578",
"E  c #45597C",
"W  c #134F83",
"Q  c #1C5782",
"!  c #19568A",
"~  c #205387",
"^  c #275988",
"/  c #355885",
"(  c #305D8E",
")  c #3A5E8A",
"_  c #196189",
"`  c #1F6D9F",
"'  c #206091",
"]  c #236798",
"[  c #316395",
"{  c #396491",
"}  c #396F9E",
"|  c #2C73A2",
" . c #2077A9",
".. c #2F7EAA",
"X. c #415B83",
"o. c #4B5E82",
"O. c #466088",
"+. c #40638F",
"@. c #4C668C",
"#. c #526384",
"$. c #526589",
"%. c #556A8D",
"&. c #486995",
"*. c #447199",
"=. c #4D759F",
"-. c #527096",
";. c #5B7091",
":. c #587296",
">. c #5B789F",
",. c #617495",
"<. c #64789A",
"1. c #677C9E",
"2. c #6B7A99",
"3. c #4075A2",
"4. c #487DA9",
"5. c #557CA5",
"6. c #607FA5",
"7. c #2C85B7",
"8. c #3B89B9",
"9. c #3A97BF",
"0. c #6F819D",
"q. c #5081AB",
"w. c #5785AB",
"e. c #4384B0",
"r. c #4E88B4",
"t. c #468CBB",
"y. c #5B8BB3",
"u. c #5391BA",
"i. c #5F98BD",
"p. c #6B81A0",
"a. c #6B85A6",
"s. c #6287AA",
"d. c #6E8CA9",
"f. c #7487A1",
"g. c #778AA5",
"h. c #7E8FA7",
"j. c #758DA9",
"k. c #7890AD",
"l. c #6B8FB0",
"z. c #6092B6",
"x. c #6E95B6",
"c. c #6796B9",
"v. c #6F99B9",
"b. c #7C97B2",
"n. c #769EBC",
"m. c #268FC2",
"M. c #2A99CD",
"N. c #3691C3",
"B. c #2AA5D2",
"V. c #39A3D0",
"C. c #3CAFDA",
"Z. c #20B2DC",
"A. c #499BC8",
"S. c #5596C0",
"D. c #639CC3",
"F. c #49A8CF",
"G. c #57A0C8",
"H. c #55A6D2",
"J. c #51B2DB",
"K. c #6EA2C3",
"L. c #65A5CC",
"P. c #7FA6C0",
"I. c #73A6C8",
"U. c #74ADCF",
"Y. c #7CAAC8",
"T. c #6CB1D3",
"R. c #6BBADD",
"E. c #79B4D5",
"W. c #76B4DA",
"Q. c #4CBDE0",
"!. c #76C2DF",
"~. c #44C6EB",
"^. c #54C7EB",
"/. c #70CAEB",
"(. c #8195AD",
"). c #8797AD",
"_. c #8D9AAC",
"`. c #839AB5",
"'. c #899BB3",
"]. c #8E9DB3",
"[. c #80A0BC",
"{. c #89A0B9",
"}. c #8BA6BE",
"|. c #93A0B3",
" X c #95A2B3",
".X c #94A4B4",
"XX c #90A1B8",
"oX c #92A6BD",
"OX c #99A6B9",
"+X c #9DAAB9",
"@X c #9BABBD",
"#X c #98A9BF",
"$X c #9DAABD",
"%X c #A0ACBD",
"&X c #86ABC4",
"*X c #8FAAC2",
"=X c #8CAFC4",
"-X c #95AEC3",
";X c #90AFC6",
":X c #9AAEC2",
">X c #8EB2C6",
",X c #83B2CD",
"<X c #89B1C9",
"1X c #9FB3C6",
"2X c #9AB6CC",
"3X c #97BACC",
"4X c #85B4D2",
"5X c #8FB6D0",
"6X c #89BCD6",
"7X c #94BAD2",
"8X c #9ABCD2",
"9X c #A2AFC2",
"0X c #A2B6C6",
"qX c #A4B5C5",
"wX c #A6B5C7",
"eX c #A9B6C6",
"rX c #A3B7C9",
"tX c #A6B9CE",
"yX c #ABB8C8",
"uX c #A9BDCD",
"iX c #ACBDCF",
"pX c #A0BDD1",
"aX c #89C2DE",
"sX c #97C4DA",
"dX c #AAC1D1",
"fX c #AEC1D1",
"gX c #A4C5D8",
"hX c #A4C4D9",
"jX c #B0C3D5",
"kX c #B6C6D7",
"lX c #B6C8D9",
"zX c #90CCE4",
"xX c #8BD0E9",
"cX c #9AD1E6",
"vX c #93D6F0",
"bX c #A4C9E1",
"nX c #B6CEE0",
"mX c #ABD5E3",
"MX c #A3D6EA",
"NX c #AEDCED",
"BX c #B5D0E2",
"VX c #BFD9E7",
"CX c #BBD6E8",
"ZX c None",
/* pixels */
"ZXZXZXZXZXZXZXZXZXZXZXZXZXZXZXZXZXZXZXZXZXZXZXZXZXZXZXZXZXZXZXZXZXZXZXZXZXZXZXZXZXZXZXZXZXZXZXZXZXZXZXZXZXZXZXZXZXZXZXZXZXZXZXZX",
"ZXZXZXZXZXZXZXZXZXZXZXZXZXZXZXZXZXZXZXZXZXZXZXZXZXZXZXZXZXZXZXZXZXZXZXZXZXZXZXZXZXZXZXZXZXZXZXZXZXZXZXZXZXZXZXZXZXZXZXZXZXZXZXZX",
"ZXZXZXZXZXZXZXZXZXZXZXZXZXZXZXZXZXZXZXZXZXZXZXZXZXZXZXZXZXZXZXZXZXZXZXZXZXZXZXZXZXZXZXZXZXZXZXZXZXZXZXZXZXZXZXZXZXZXZXZXZXZXZXZX",
"ZXZXZXZXZXZXZXZXZXZXZXZXZXZXZXZXZXZXZXZXZXZXZXZXZXZXlX>XcXMX4XMX6XsXbX5X=XBXuXZXZXZXZXZXZXZXZXZXZXZXZXZXZXZXZXZXZXZXZXZXZXZXZXZX",
"ZXZXZXZXZXZXZXZXZXZXZXZXZXZXZXZXZXZXZXZXZXZXZXOX'.-X=X&X4XzXY.=XY.aXvXzX6XcXsX5X3XfXZXZXZXZXZXZXZXZXZXZXZXZXZXZXZXZXZXZXZXZXZXZX",
"ZXZXZXZXZXZXZXZXZXZXZXZXZXZXZXZXZXZXZXZXwXtX(.`.=Xn.n.4XI.I.aXc.Y.E.T.vXvX/.xXvX,X&XhXrXZXZXZXZXZXZXZXZXZXZXZXZXZXZXZXZXZXZXZXZX",
"ZXZXZXZXZXZXZXZXZXZXZXZXZXZXZXZXZXZX%X:XXX`.&Xb.v.U.W.R.T.T.L.D.i.L.R./.R./.!.E.6X,XP.=X8X3XZXZXZXZXZXZXZXZXZXZXZXZXZXZXZXZXZXZX",
"ZXZXZXZXZXZXZXZXZXZXZXZXZXZXZXZXlX|.).:Xj.d.Y.I.i.L.L.u.i.y.} w.*.=.y.G.J./.R.D.U.I.v.<X7X&X3XjXZXZXZXZXZXZXZXZXZXZXZXZXZXZXZXZX",
"ZXZXZXZXZXZXZXZXZXZXZXZXZXZXZXeX).*X}.j.n.n.w.z.D.q.4.u.q.{ O./ { +./ *.G.F.^./.S.z.I.l.x.5X}.P.jXuXZXZXZXZXZXZXZXZXZXZXZXZXZXZX",
"ZXZXZXZXZXZXZXZXZXZXZXZXZXZXyX-X}.&Xn.d.z.y.w.q.r.e.4.} { { Y D P Y Y Y ) e.Q.^.J.G.D.z.c.n.P.&X-X:X0XZXZXZXZXZXZXZXZXZXZXZXZXZX",
"ZXZXZXZXZXZXZXZXZXZXZXZXZXjX(.(.`.a.s.c.w.4.r.3.[ } } ^ ^ ^ L L x D K D H / | C.^.^.F.L.L.w.x.,Xb.}.tX@XZXZXZXZXZXZXZXZXZXZXZXZX",
"ZXZXZXZXZXZXZXZXZXZXZXZX2X'.oXb.a.d.s.=.4.4.3.} ( H M M B C A g M M x M H L L | V.F.J.J.u.i.s.c.[.&X(.qXeXZXZXZXZXZXZXZXZXZXZXZX",
"ZXZXZXZXZXZXZXZXZXZXZXbX;X`.[.x.s.w.5.*.} } | ] ] _ Q B g s f g l i s n x x H Q ` N.8.C.F.S.w.i.x.k.k.XX9X#XZXZXZXZXZXZXZXZXZXZX",
"ZXZXZXZXZXZXZXZXZXZXNX<X5X4Xz.z.z.4.e.t.8.7.N...] A x i w w w q 5 w l l n l l V A | | 9.J.N.u.i.5.<.(.h.(.jXwXZXZXZXZXZXZXZXZXZX",
"ZXZXZXZXZXZXZXZXZXNXcXcXaXU.L.i.u.A.V.V.B.m.` A x l f s w 0 7 7 e 0 0 w p p s l ~ B ..| N.8.r.q.5.,.1.k.'.}.pXlXZXZXZXZXZXZXZXZX",
"ZXZXZXZXZXZXZXZXVXMXzXvXE.i.D.q.e.t...[ B h q 9 8 q w l l n a 0 4 7 0 7 4 4 0 w m V Q | | 7.| ) =.%.;.g.`.b.8XnXZXZXZXZXZXZXZXZX",
"ZXZXZXZXZXZXZXZXsXMXzXK.K.D.*.3.3.^ C v u 9 e w p p y p a m m a y 0 0 q 0 2 < 1 q g x _ ^ ^ ^ { ) E ,.;.p.}.*X{.kXZXZXZXZXZXZXZX",
"ZXZXZXZXZXZXZXmXsX5XY.K.z.q.*.{ ( L z u w u s w p n Z Z Z m m y y 0 6 0 q 0 1 - : q p n V B L K T R o.;.1.g.{.*X9XZXZXZXZXZXZXZX",
"ZXZXZXZXZXZXuXhXMXP.l.x.-.E E P v h s f g g n Z N p 0 6 < < : 2 6 6 < : 2 6 6 < - < 7 w p u B k P U I %.<.;.(.2X).yXZXZXZXZXZXZX",
"ZXZXZXZXZXZXnXpXb.`.l.-.@.O.P J v i x V A _ Z p 5 1 ; - * % * * * - : - $ ; < 2 ; - 1 2 e 5 g v b S R R #.0.f.k.1X9XZXZXZXZXZXZX",
"ZXZXZXZXZXZXjXoXh.g.1.@.@.) K v d g V A A p 4 ; - - * % % % $ & % $ $ * % # % * - * ; < < 1 q s z j G I o.,.p.j.XX$XrXZXZXZXZXZX",
"ZXZXZXZXZXCX}.'.'.2.%.:.X.K J z x B V l 0 , * - : - * % $ @ @ # # # @ @ % $ $ % % * $ ; - < 4 w d c j I o.$.p.[.f.XXnXZXZXZXZXZX",
"ZXZXZXZXZXpX2X`.0.1.:.X.U J L ] ! Q l e ; - > < - $ $ @ @ o O O o + @ + + $ $ % # % $ - * ; < q e z j F R %.,.l.`.oX2XfXZXZXZXZX",
"ZXZXZXZXZX-X1X(.2.1.%.U Y ..7.`  .V q < ; 1 : - * @ + + o + O . X o o + + @ # % # $ # $ & * : 8 8 f j S T $.;.c.[.5X;XyXZXZXZXZX",
"ZXZXZXZXdXiXh.g.k.;.X.X.[ 7.7.m._ y , > 1 : - * # + o o o X X . X   X o O O + & @ @ @ $ & - : 6 8 s t S ) U -.I.x.5XhXOXZXZXZXZX",
"ZXZXZXZXwXOX).g.1.;.o.{ 8.B.Z. .g 1 1 3 > - - # @ + + + X . . . . X . X O o o % @ @ @ @ * $ > 4 7 u t D Y R %.c.I.,XoX9XuXZXZXZX",
"ZXZXZXZX9X(.oXg.%.;.=.N.~.^.M.V 9 5 7 , ; : $ @ # + + o X . . . . . . . X X o @ + + + @ $ $ < 4 7 q t v K E @.5.Y.P.(.wXBXZXZXZX",
"ZXZXZXZX9X1Xf.0.p.=.A.^.~.Z.' s e w 1 - ; * # # # + + o X o X X .   . . X X X @ + + + + $ * 2 4 0 8 8 v P I @.6.s.j.#X|.eXZXZXZX",
"ZXZXZXuX1X-Xg.p.s.u.J.C.V.` x f g 0 ; * ; * % # # + O X X . .         . . . X + o o + @ $ % 1 1 4 4 8 h D ) O.6.<.f.].oXwXZXZXZX",
"ZXZXZXlX1Xh.{.d.q.J.J.7.| ~ x l g 3 * - ; * * $ @ O X . . . .         . X . o o o o o $ # = > ; < 2 8 d K +.&.=.d.j.g.wXiXZXZXZX",
"ZXZXZXuX1XoXg.l.T.J.t.[ ] W V x u > ; ; ; - * @ @ + X . . X X       X X X o o X o o + @ # % & ; > < 8 z ^ P =.5.>.j.{.XX9XZXZXZX",
"ZXZXZX+X9X#Xf.v.R.A.3.[ [ W V x 9 > - - * - % @ @ + X . . . .     . X X X o X o X X + @ @ # $ - > 2 q L Y Y =.6.:.g.XX].$XZXZXZX",
"ZXZXZXlX%Xk.].K.u.S.3.^ ~ ! B l 3 > - - % - % + @ + X X . . . X X X X X X . X X X o o + @ # % ; < e l B L +.&.@.a.j.f.9XiXZXZXZX",
"ZXZXZXiXOX].P.K.z.r.{ ( ~ W V s 3 > - * - : % @ $ @ o . . . . X X . . . . . X X X o + @ $ % * : 5 l s L H / o.%.6.f.). X9XZXZXZX",
"ZXZXZX|.9XpXn.c.D.4.) [ L C W s 5 > ; & ; 1 $ @ @ $ o X X . . . . . . X . X . X o + # $ @ & : 4 u t i L J P E 2.;.f.oX_.OXZXZXZX",
"ZXZXZXZXhX8X<XI.w.5.+.Y L ~ W e 3 1 ; % 1 5 - # @ $ @ + o X X . . . . X O o + + @ # @ @ @ ; 7 1 4 e z d j I E %.2.(.(.OXyXZXZXZX",
"ZXZXZXZXhXbXn.I.v.-.X.) ~ ~ ! e 3 1 ; * , 0 - $ @ $ # @ + X o X o X o O O O + + + + + # * 1 > = 4 l g c F I #.2.6.b.9X X%XZXZXZX",
"ZXZXZXZXiX=X7X,Xs.5.@.( ( ^ C r 5 1 , = ; 0 > & @ # $ $ + o o o o O O o O O + + @ @ # * < = = 3 u h x b F o.3.6.n.`.).wXlXZXZXZX",
"ZXZXZXZXtX-XsX,Xs.6.-.{ / ~ x i 5 3 3 ; = 5 > $ $ @ & $ $ @ + X o O O + O O + + @ $ ; ; ; ; 3 w g B D D / =.w.6.b.'.].iXZXZXZXZX",
"ZXZXZXZXiXnXP.Y.`.6.&.&.Y b b z e 4 5 > > , 3 - @ $ @ - $ % % + O O O + + + @ $ ; < < > > 4 r f B x C } 3.5.s.j.2.).iX%XZXZXZXZX",
"ZXZXZXZXZXpX2X`.k.s.:.X.U F b k r 7 7 1 5 ; 5 > $ $ @ $ - * * @ + @ @ @ # % < 3 3 6 3 q p u 9 k V ' [ { +.-.,.0.h.].:XeXZXZXZXZX",
"ZXZXZXZXZX.XiXoXf.k.2.E R I b M u e 9 7 e , 3 5 * - & @ $ ; < & = $ & - : 6 0 q y s p u f n ! _ ` | } T X.<.,.2.oXOX|.ZXZXZXZXZX",
"ZXZXZXZXZXBX_.].*X2.;.,.E F I b r u r 5 r 7 > 9 = ; - $ $ $ > & % - < 4 4 q p a a l N _ ] ] V C ' [ Y +.%.#.0.'.h.OXnXZXZXZXZXZX",
"ZXZXZXZXZXZX9XOX].f.2.,.@.U F J d h u 9 r r 3 3 3 ; ; $ & & $ > ; $ $ 3 w a n N N A Q W V V W ~ ^ Y U o.%.<.g.).XXwXiXZXZXZXZXZX",
"ZXZXZXZXZXZXVX9Xh.'.h.;.:.$.G P S z i e e j e 5 3 ; , = = = = & > 1 > ; 3 w l n N x l l z i z H H G o.o.;.k.g.h.iXiXZXZXZXZXZXZX",
"ZXZXZXZXZXZXZXwX0X).j.j.<.o.o.T J v h r e s r 9 5 ; > , = = > = = , 3 5 5 5 3 e e q r r r s z c G R E ;.2.0.'.2X:XfXZXZXZXZXZXZX",
"ZXZXZXZXZXZXZXfXiX].h.(.a.;.$.X.Y F c s r r r e r 3 , , > > , 9 e e , ; ; , 3 5 9 r h x x K D F R O.$.1.j.k.oXiX0XZXZXZXZXZXZXZX",
"ZXZXZXZXZXZXZXZX XtX:Xf.k.j.#.@.&.P D D i u u r i u 5 1 3 , 3 e x V u 3 3 3 3 3 9 r r d c c P O.T $.p.2.f.#XXX|.lXZXZXZXZXZXZXZX",
"ZXZXZXZXZXZXZXZXZXwXOX].b.a.1.5.=.{ / K j z i i k k r 5 9 9 e z k x i u 7 4 7 r i k M H K P I R #.;.2.g.).].9XeXZXZXZXZXZXZXZXZX",
"ZXZXZXZXZXZXZXZXZXwX:XwX'.p.h.s.q.5.4.( P D j s W C x r r i x ' W W V i r 8 r h h c D S S E E E 2.p.2.].OX_.yXZXZXZXZXZXZXZXZXZX",
"ZXZXZXZXZXZXZXZXZXZXkX_.*X-Xj.x.K.q.r.q.{ P F j b W ! k i C ! m.m. .` ' k t t t S D D U E R %.a.6.x.*X)._.jXZXZXZXZXZXZXZXZXZXZX",
"ZXZXZXZXZXZXZXZXZXZXZXwX:X-X}.P.n.x.i.u.4.+./ I b J H H z ~ ] m.B.M.m.7.| ^ H D F I T &.=.5.z.K.Y.&X;X#X9XZXZXZXZXZXZXZXZXZXZXZX",
"ZXZXZXZXZXZXZXZXZXZXZXZXeX].hX-Xj.n.K.D.D.w.{ { T F J Y b b (  .M.M.M.C.V.N.8.e.} 4.S.r.w.v.x.x.sX7X}.jXZXZXZXZXZXZXZXZXZXZXZXZX",
"ZXZXZXZXZXZXZXZXZXZXZXZXZXkX-X-X-Xb.n.E.R.u.y.q.&.o.R P T R F 8.8.N.t.C.C.J.F.A.H.G.G.W.W.K.P.5X{.:XjXZXZXZXZXZXZXZXZXZXZXZXZXZX",
"ZXZXZXZXZXZXZXZXZXZXZXZXZXZXqX:X1X{.&X4X!.T.D.c.u.5.@.X.X.X.X.&.t.A.t.t.H.H.u.S.R.R.T.W.6X4XsXbX2XrXZXZXZXZXZXZXZXZXZXZXZXZXZXZX",
"ZXZXZXZXZXZXZXZXZXZXZXZXZXZXZXZX|.tXhXP.aXxXK.U.E.y.5.6.$.o.5.&.>.r.r.S.L.S.D.I.D.U.aXY.P.bX8X;XVXZXZXZXZXZXZXZXZXZXZXZXZXZXZXZX",
"ZXZXZXZXZXZXZXZXZXZXZXZXZXZXZXZXZXwX8XhX7X6XaXaXE.U.v.a.1.,.>.D.y.>.s.c.c.x.x.v.Y.Y.<X7X2X#XrXZXZXZXZXZXZXZXZXZXZXZXZXZXZXZXZXZX",
"ZXZXZXZXZXZXZXZXZXZXZXZXZXZXZXZXZXZXZXVX2X<XMXzX,XaX4Xd.k.h.,.4Xc.x.k.d.v.&Xb.j.7X8X&XbXnX XZXZXZXZXZXZXZXZXZXZXZXZXZXZXZXZXZXZX",
"ZXZXZXZXZXZXZXZXZXZXZXZXZXZXZXZXZXZXZXZXZXBX3XsXNX<X&XsX[.f.].g.;X}.f.'.2X[.*XtX].:XCXZXZXZXZXZXZXZXZXZXZXZXZXZXZXZXZXZXZXZXZXZX",
"ZXZXZXZXZXZXZXZXZXZXZXZXZXZXZXZXZXZXZXZXZXZXZXZXBXhXpXpX8XoXXX].XXoXXX|.OX:XpXdXZXZXZXZXZXZXZXZXZXZXZXZXZXZXZXZXZXZXZXZXZXZXZXZX",
"ZXZXZXZXZXZXZXZXZXZXZXZXZXZXZXZXZXZXZXZXZXZXZXZXZXZXZXZXZXlX XuX X XuX+XZXZXZXZXZXZXZXZXZXZXZXZXZXZXZXZXZXZXZXZXZXZXZXZXZXZXZXZX",
"ZXZXZXZXZXZXZXZXZXZXZXZXZXZXZXZXZXZXZXZXZXZXZXZXZXZXZXZXZXZXZXZXZXZXZXZXZXZXZXZXZXZXZXZXZXZXZXZXZXZXZXZXZXZXZXZXZXZXZXZXZXZXZXZX",
"ZXZXZXZXZXZXZXZXZXZXZXZXZXZXZXZXZXZXZXZXZXZXZXZXZXZXZXZXZXZXZXZXZXZXZXZXZXZXZXZXZXZXZXZXZXZXZXZXZXZXZXZXZXZXZXZXZXZXZXZXZXZXZXZX",
"ZXZXZXZXZXZXZXZXZXZXZXZXZXZXZXZXZXZXZXZXZXZXZXZXZXZXZXZXZXZXZXZXZXZXZXZXZXZXZXZXZXZXZXZXZXZXZXZXZXZXZXZXZXZXZXZXZXZXZXZXZXZXZXZX"
};
