/* XPM */
static char *YmxhY2tob2xlMi04[] = {
/* columns rows colors chars-per-pixel */
"64 64 243 2 ",
"   c #040607",
".  c #050508",
"X  c #060609",
"o  c #08070C",
"O  c #0A0A0F",
"+  c #0C0C12",
"@  c #0E0E15",
"#  c #0E0F16",
"$  c #0D1119",
"%  c #0B141B",
"&  c #0C111C",
"*  c #0B141F",
"=  c #081721",
"-  c #0A1523",
";  c #0B1726",
":  c #0C1526",
">  c #0D152A",
",  c #0A172F",
"<  c #0D192A",
"1  c #0C1C2E",
"2  c #0C1E33",
"3  c #091A35",
"4  c #0A1D39",
"5  c #0B2139",
"6  c #0A203D",
"7  c #17283F",
"8  c #0A2340",
"9  c #0F2041",
"0  c #092A41",
"q  c #0A2D4A",
"w  c #102541",
"e  c #112346",
"r  c #122749",
"t  c #142A4D",
"y  c #1A2E4D",
"u  c #172950",
"i  c #112D50",
"p  c #192D56",
"a  c #0A3456",
"s  c #0B3B51",
"d  c #0F385C",
"f  c #0B3F5E",
"g  c #143056",
"h  c #1F3557",
"j  c #16355E",
"k  c #1B315A",
"l  c #283C5F",
"z  c #1C3460",
"x  c #163A63",
"c  c #143E69",
"v  c #1D3C69",
"b  c #213A62",
"n  c #263F6A",
"m  c #104762",
"M  c #1F416F",
"N  c #12486E",
"B  c #0D4874",
"V  c #144272",
"C  c #194672",
"Z  c #1A4B76",
"A  c #14487B",
"S  c #124E7C",
"D  c #125174",
"F  c #2D4162",
"G  c #2C436C",
"H  c #34476E",
"J  c #3A4C6C",
"K  c #284772",
"L  c #2E4973",
"P  c #234979",
"I  c #2D4D79",
"U  c #374D72",
"Y  c #21517E",
"T  c #3E5172",
"R  c #3B5177",
"E  c #33507B",
"W  c #42567A",
"Q  c #485A7A",
"!  c #1A4E82",
"~  c #165086",
"^  c #1A5885",
"/  c #1A5F8E",
"(  c #245787",
")  c #2F5381",
"_  c #255C8E",
"`  c #355986",
"'  c #3D5982",
"]  c #3D5C87",
"[  c #335E8F",
"{  c #3C628F",
"}  c #23659A",
"|  c #236F9C",
" . c #306695",
".. c #3C6A99",
"X. c #3C749F",
"o. c #206FA4",
"O. c #247AAA",
"+. c #3071A3",
"@. c #3F7AA6",
"#. c #485D83",
"$. c #4D6183",
"%. c #44648D",
"&. c #4E648A",
"*. c #56688A",
"=. c #466B95",
"-. c #4E6A92",
";. c #586E91",
":. c #506F98",
">. c #5F7192",
",. c #5C7396",
"<. c #667796",
"1. c #677D9E",
"2. c #6E7F9B",
"3. c #4A73A0",
"4. c #487AA6",
"5. c #527BA4",
"6. c #5C7BA1",
"7. c #3883AE",
"8. c #2C86B8",
"9. c #368EBC",
"0. c #4C81AB",
"q. c #5A81A8",
"w. c #5887AD",
"e. c #4887B2",
"r. c #4C8DBB",
"t. c #548BB5",
"y. c #5991B7",
"u. c #5795BE",
"i. c #5E96BD",
"p. c #6281A5",
"a. c #6C87A9",
"s. c #6489AC",
"d. c #7084A1",
"f. c #7786A0",
"g. c #7B8CA2",
"h. c #788AA5",
"j. c #7287A8",
"k. c #788EA9",
"l. c #7E90A7",
"z. c #7190AD",
"x. c #7C93AD",
"c. c #678FB1",
"v. c #6494B9",
"b. c #6A99BB",
"n. c #7094B5",
"m. c #7F97B1",
"M. c #7B99B6",
"N. c #719BBA",
"B. c #799DBB",
"V. c #7FA0BD",
"C. c #2690C1",
"Z. c #2B98C9",
"A. c #3B9AC9",
"S. c #25ACD9",
"D. c #38A6D2",
"F. c #3BB7E1",
"G. c #4E97C1",
"H. c #489CC7",
"J. c #5F9FC9",
"K. c #659DC0",
"L. c #46A5CF",
"P. c #57A6CE",
"I. c #4CB2DC",
"U. c #5FBADF",
"Y. c #6FA3C5",
"T. c #69A6CA",
"R. c #73A1C0",
"E. c #76A6C4",
"W. c #75ACCE",
"Q. c #7EABC9",
"!. c #68ACD3",
"~. c #6FB7D9",
"^. c #7EB6D2",
"/. c #7EBBDC",
"(. c #45C5EA",
"). c #5CC8EA",
"_. c #75C6E5",
"`. c #8796AC",
"'. c #939EAF",
"]. c #8498B1",
"[. c #8A9BB2",
"{. c #879EB8",
"}. c #919EB1",
"|. c #8EA1B7",
" X c #80A5BF",
".X c #87A7BE",
"XX c #8CA4BE",
"oX c #96A2B4",
"OX c #92A4B6",
"+X c #92A7B9",
"@X c #94A4B9",
"#X c #93A7BD",
"$X c #94ABBE",
"%X c #99A8BA",
"&X c #9AA9BD",
"*X c #9FAABC",
"=X c #85ACC5",
"-X c #8FACC3",
";X c #96AFC3",
":X c #9FAFC3",
">X c #9BAFC5",
",X c #88B0CC",
"<X c #91B3CB",
"1X c #97B4CA",
"2X c #9FB4C9",
"3X c #9BB9CA",
"4X c #8CB7D1",
"5X c #85BBD9",
"6X c #93B9D0",
"7X c #9ABAD0",
"8X c #A4B2C3",
"9X c #A2B3C5",
"0X c #A6B7C6",
"qX c #ABB7C7",
"wX c #A7B8C7",
"eX c #A2B9CC",
"rX c #AAB8CA",
"tX c #ADBDCF",
"yX c #A5BED2",
"uX c #A3BFD4",
"iX c #92C2DC",
"pX c #98C3DB",
"aX c #9FC6DC",
"sX c #ADC1D0",
"dX c #A9C1D5",
"fX c #AAC4D6",
"gX c #A6C9DE",
"hX c #B4C3D4",
"jX c #B0C5D4",
"kX c #B6C6D7",
"lX c #B8C9DA",
"zX c #8BCAE1",
"xX c #94CFE7",
"cX c #9FCDE2",
"vX c #85D3EE",
"bX c #A7DBE4",
"nX c #A0D8EE",
"mX c #AEDAEE",
"MX c #B4D1E3",
"NX c #B7D4E7",
"BX c #B9D7E7",
"VX c #C1D0E0",
"CX c None",
/* pixels */
"CXCXCXCXCXCXCXCXCXCXCXCXCXCXCXCXCXCXCXCXCXCXCXCXCXCXCXCXCXCXCXCXCXCXCXCXCXCXCXCXCXCXCXCXCXCXCXCXCXCXCXCXCXCXCXCXCXCXCXCXCXCXCXCX",
"CXCXCXCXCXCXCXCXCXCXCXCXCXCXCXCXCXCXCXCXCXCXCXCXCXCXCXCXCXCXCXCXCXCXCXCXCXCXCXCXCXCXCXCXCXCXCXCXCXCXCXCXCXCXCXCXCXCXCXCXCXCXCXCX",
"CXCXCXCXCXCXCXCXCXCXCXCXCXCXCXCXCXCXCXCXCXCXCXCXCXCXCXCXCXCXCXCXCXCXCXCXCXCXCXCXCXCXCXCXCXCXCXCXCXCXCXCXCXCXCXCXCXCXCXCXCXCXCXCX",
"CXCXCXCXCXCXCXCXCXCXCXCXCXCXCXCXCXCXCXCXCXCXCXCXCXCXlXsX9XrXrX*XrX*X8XtXwXqXlXCXCXCXCXCXCXCXCXCXCXCXCXCXCXCXCXCXCXCXCXCXCXCXCXCX",
"CXCXCXCXCXCXCXCXCXCXCXCXCXCXCXCXCXCXCXCXCXCXCXkX8XoXtX:X[.2X:X`.8X`.oXrXoXoXhX8XoXfXCXCXCXCXCXCXCXCXCXCXCXCXCXCXCXCXCXCXCXCXCXCX",
"CXCXCXCXCXCXCXCXCXCXCXCXCXCXCXCXCXCXCXCX%XhXMX-X7XuXm.[.&Xl.x.#Xf.@X[.g.@X&Xl.:XtX}.8XVXCXCXCXCXCXCXCXCXCXCXCXCXCXCXCXCXCXCXCXCX",
"CXCXCXCXCXCXCXCXCXCXCXCXCXCXCXCXCXCXqX8X:X&X@X;X4X4X=XM.h.h.k.k.h.f.h.l.x.m.].[.[.@X;X:XrXtXCXCXCXCXCXCXCXCXCXCXCXCXCXCXCXCXCXCX",
"CXCXCXCXCXCXCXCXCXCXCXCXCXCXCXCXeXhX}.|.:Xl.h.XXB.b.Q.N.,.d.a.,.j.,.1.j.1.a.V.h.2.@X[.l.9XrX#XdXCXCXCXCXCXCXCXCXCXCXCXCXCXCXCXCX",
"CXCXCXCXCXCXCXCXCXCXCXCXCXCXCXNX9X[.2X.Xh.M.B.s.V.Y.w.6.p.5.:.q.$.,.,.$.<.s.5.a.h.<.f.`.`.`.yX:X}.lXCXCXCXCXCXCXCXCXCXCXCXCXCXCX",
"CXCXCXCXCXCXCXCXCXCXCXCXCXCX9XuX,X.X|.l.2.d.1.;.-.;.&.-.&.%.3.5.%.#.#.#.$.*.q.q.p.<.<.f.h.k.+X#XoXrXqXCXCXCXCXCXCXCXCXCXCXCXCXCX",
"CXCXCXCXCXCXCXCXCXCXCXCXCXtXtXm.{.{.<.<.2.;.&.;.#.T Q R E { ' E { E U W J W -.3.=.,.>.*.j.h.d.{.*X`.*XkXCXCXCXCXCXCXCXCXCXCXCXCX",
"CXCXCXCXCXCXCXCXCXCXCXCXrX|.`.{.k.1.1.<.$.$.Q R ' ] I L L K ) ) P K H b b U U ..3.' &.*.;.>.d.k.f.|.oXoXfXCXCXCXCXCXCXCXCXCXCXCX",
"CXCXCXCXCXCXCXCXCXCXCX*X:X].k.x.1.*.,.$.J W W F F G G n b h h Z Z ! M h h n G ) ..` ] $.#.*.<.1.2.`.[.`.qXkXCXCXCXCXCXCXCXCXCXCX",
"CXCXCXCXCXCXCXCXCXCXtX;Xk.m.x.>.,.>.W T W l l b h y y 7 7 7 7 w v k k l b j P v _ ..[ E W $.Q ,.d.<.x.1X.X>XBXCXCXCXCXCXCXCXCXCX",
"CXCXCXCXCXCXCXCXCX9X#X-XV.d.<.;.$.W T H l l b z k g t 8 5 2 1 < t j t 8 t x v C Z | +.) L R Q -.*.<.j.V.,X3X9XlXCXCXCXCXCXCXCXCX",
"CXCXCXCXCXCXCXCXqXdX{.M.V.s.5.5.=.` E K h l y w w 8 6 8 5 1 < < 1 q r 5 2 8 j c c ^ | _ Y L T ' W ,.1.c.5X<X=XgXCXCXCXCXCXCXCXCX",
"CXCXCXCXCXCXCXCX>XV.,XQ.v.v.t...{ ` M v j i r w 5 5 5 5 2 < ; - ; < 8 5 > : 6 g k A / A ( K b ' #.W ;.n.K.M.gX1X-XCXCXCXCXCXCXCX",
"CXCXCXCXCXCXCXyX6X XB.c.w.t.G.7. .Y Z v g w 1 < : : < 1 1 1 - $ $ : ; 5 3 - : 4 u j / V A l b I U W $.6.b.n.4XcX7XCXCXCXCXCXCXCX",
"CXCXCXCXCXCXlX=X,X,Xc.w.J.H.9.7.| Y x r 2 1 ; - - & & $ % = - $ # & * $ , > * > i t / S A r C n b R W #.v.N.W.zXgXOXCXCXCXCXCXCX",
"CXCXCXCXCXCX6XpX=Xb.b.i.H.I.D.7._ Y c i 2 - * & & & $ $ $ # # # $ # # # $ ; ; ; 4 p B / B e z n G U J $.5.v.5X,X=XtXCXCXCXCXCXCX",
"CXCXCXCXCXCX-X<XB.c.K.P.I.L.7.| | Y d 6 < ; - & & # @ + + # @ @ # # # + + $ ; ; , a j | B t z z v n H W 3.K./.W.Q.pXyXCXCXCXCXCX",
"CXCXCXCXCXfX7XN.R.T.G.I.L.7.O.| N d q 5 < * & # @ + # + + O + + + # $ # + + $ ; , q d / B u k u k n G G =.J.J./.iX=X7XCXCXCXCXCX",
"CXCXCXCXCX1X=XQ.b.u.U.I.A.9.( C N g 5 - * % % $ @ @ + + o o o o O X + # # + # ; 5 6 f B B i u 9 k z n H ] r.!.~.E.,X7X%XCXCXCXCX",
"CXCXCXCXCX<X^.5XK.P.).F.9.( Y S d 5 ; - ; * $ # @ @ + + + O o X X X O # # + O # 1 6 f f D j r 4 p k b F E e.U.!.b.6X-XOXCXCXCXCX",
"CXCXCXCX+XxXxXT.!.).(.A. .Z N j 8 ; - 1 ; % % % $ $ $ # @ O X o X   o + + + + + ; 2 s f D g 9 3 6 p h h [ H.H.K.W.z.{.tXCXCXCXCX",
"CXCXCXCXpXxXvX~.).).L.( Y C x i 5 ; 5 2 * $ % $ # + O X X o o X X X X O + + + + & 1 q a D r 4 , 3 e e l [ A.H.u.b.z.{.1XeXCXCXCX",
"CXCXCXCXmXzX_._.U.H...Y Z c x r 1 5 6 1 $ # $ # + O X   X X X o . . . o O + O O + 1 8 q m 4 4 > 2 4 w b +.D.I.P.y. X X=XqXCXCXCX",
"CXCXCXCX=XvXvXU.P.0.I Z M c c 8 5 0 0 = $ % # O + O O   . . X X X . . X O O O O + = 1 8 q , 3 ; 4 e u ~ 8.F.I.P.T.v.=X>X}.CXCXCX",
"CXCXCXeX4XvXvXU.e.] K C c c d 8 6 q 1 * * % + # + o X   . X X X . . . X O o O + + % ; 5 : , , > e u V o.C.F.A.r.i.c.k.}.oXCXCXCX",
"CXCXCXeXnX_.~.!.=.E I M c g i 6 0 0 5 < * # # # o   X X         . . . . o o + O + # ; ; & 3 > 4 z k / O.Z.Z.r.e.0.j.k.k.rXCXCXCX",
"CXCXCXeXzX^.~.y.=.] K M j j 8 8 5 q 5 1 % # # + X X           . X X . X X o O O + # ; & - 3 > g V A ~ C.Z.A.A.G.6.p.B.XX@XCXCXCX",
"CXCXCXcX^.Q.W.0.=.] n C j g 8 6 0 s 0 1 % % # X   X X X .       X X . . X o o O + # * & > : 3 j c v } Z.D.9.9.0.6.y.R.;X`.CXCXCX",
"CXCXCXcX,XE.!.y.3.U P Z V u e 8 f f q = = $ + o X . X X X X X X X X X X . o o O # % ; < & & , 3 e v } o.O.+.E #.t.v.f.].@XCXCXCX",
"CXCXCXcX X5X/.t.=.' Y Z Z p 8 q m m s = = % + O X . . X X X X X . . . X X o X # % ; 1 * & - > 3 3 k A } } ) L :.5.,.f.}.[.CXCXCX",
"CXCXCXcXnX/.T.T.=...[ Y c k 8 a f m s = % $ + o o X . . o X X   X X . o o X + # % ; - & * - ; > 4 u M ~ ! n ' %.&.d.h.`.uXCXCXCX",
"CXCXCXCXxXQ.T.!.0.@.[ Y z j e d f m s = % % # O + o X X X . X   X . o O + o # & % & + & * * - > 4 e u j b K ' #.;.d.m.=XuXCXCXCX",
"CXCXCXCX=X,X/.P.t.0. .Y v c t d d f m ; % * # + o O O O X X X X   X o + + @ $ % $ # # & - > , , 2 9 p K Z E U -.a.p.=XgX3XCXCXCX",
"CXCXCXCX7XB.W.!.y.@.@.Y C S j i a a N 1 = = % # + + + O O o X X o o O @ @ @ % $ # # % - > , > , 4 z ~ ! K L #.:.s.R.,X<XlXCXCXCX",
"CXCXCXCXuX{.R.W.i.0.e.) ~ _ V i i q D 6 ; = * & + + # + + + O + + # # # $ $ @ @ & & - : : : > 4 z V A P n E -.t.K.5X4X<XCXCXCXCX",
"CXCXCXCX%X#X=Xs.T.t.@.`  .} ^ g w g N d < = ; * & + + # + # # # # # # # @ @ @ $ # & % > 3 3 9 p k V P b H #.3.K./.^.iXmXCXCXCXCX",
"CXCXCXCXCX|.].R.b.w.4.@.+.| O.i 6 g a D 3 = < ; = & + # # # # # + + + # & # & & - , 8 6 2 4 e r p k h F R =.t.Y.^.zXpXdXCXCXCXCX",
"CXCXCXCXCXOXl.,Xb.5.t.e.+.+.Z.x w g p ^ a ; = 1 = ; * # # % % % $ % & % - ; ; > 4 4 , , 4 e p u k k l E [ 3.v.b.W.nXgXCXCXCXCXCX",
"CXCXCXCXCX%X>Xz.n.b.0.0.@.+.Z.( t e k N D 6 - ; 1 - ; ; % * * = ; > 1 2 4 8 4 3 > > 3 9 t z p t p n L ) 3.t.i./.xX,XuXCXCXCXCXCX",
"CXCXCXCXCXCX:X].M.N.w.0.3.X.D.O.k e g V ^ d 3 ; > 1 ; ; ; ; ; = * ; ; > , > ; : , 6 r u e e e t h G ) ..t.!.~.5XiX6XfXCXCXCXCXCX",
"CXCXCXCXCXCX+X2X].c.n.w.=.4.H.9.C j r c S B g 4 ; , 2 ; = - - ; - * $ - % - ; ; > 4 6 6 e r r l K ) ..t.u.T.5XQ.=XMXCXCXCXCXCXCX",
"CXCXCXCXCXCXCX}.[..Xs.s.6.4.9.A._ C h j V V B j 4 : 4 4 < - - - - - - - : : 3 4 4 9 e u p k b l G ..e.t.K.R.R.6XgX3XCXCXCXCXCXCX",
"CXCXCXCXCXCXCX%X+X-Xz.c.s.4.r.H.+.( K h k c S ^ V 5 1 8 r 4 , > > ; , , , , 1 3 5 9 e p z b G H E 3.q.w.n.B.m.;XtXCXCXCXCXCXCXCX",
"CXCXCXCXCXCXCXCX9Xm.;Xx.p.c.i.e.@...P b z k A } O.B t 6 t x g r 3 3 3 2 2 2 2 6 e t t y b H K ] 3.3.y.R.z.m.2X@XCXCXCXCXCXCXCXCX",
"CXCXCXCXCXCXCXCXCX>XXXx.n.c.i.y.4.X.` G M h Z | O.C./ x p j c c j g r w 9 r u p z v M M K E ' #.-.p.c.N. X-X>XwXCXCXCXCXCXCXCXCX",
"CXCXCXCXCXCXCXCXCXjX|.].XXn.K.T.w.X.%.R P K n | 8.Z.S.O.A z V A V S ~ S ~ ! V M n v G U H T &.&.*.j.k.z.7XuXOXCXCXCXCXCXCXCXCXCX",
"CXCXCXCXCXCXCXCXCXCXkX>Xx.=X5XK.K.i.=.W %.E K ) 9.8.(.(.C._ ! ! ^ S ! _ ^ ( _ P n U J H #.&.$.1.k.1.x.2X|.&XCXCXCXCXCXCXCXCXCXCX",
"CXCXCXCXCXCXCXCXCXCXCXwX1X<X4X/.W.K.q.-.&.%.' U ` +.D.).F.9.} } ( ( P P Y ( [ ) R R W #.;.,.1.a.x.].|.&X:XCXCXCXCXCXCXCXCXCXCXCX",
"CXCXCXCXCXCXCXCXCXCXCXCXNX7X4XnX5XK.R.p.&.;.:.R W ] +.F.(.A.+. .( [ ` K ` { [ =.-.' $.<.;.<.m.h.f.:X&X}.CXCXCXCXCXCXCXCXCXCXCXCX",
"CXCXCXCXCXCXCXCXCXCXCXCXCXNXmXzXxX5XN.z.j.>.;.,.$.#.&.0.L.I.L.7...[ { =.] %.:.:.-.,.<.>.f.l.f.[.:X@XrXCXCXCXCXCXCXCXCXCXCXCXCXCX",
"CXCXCXCXCXCXCXCXCXCXCXCXCXCXBXbXnXaX=XB.m.2.<.1.,.;.>.:.0.P.U.L.u.0.5.5.:.:.p.6.p.z.j.d.x.[.`.>XtX0XCXCXCXCXCXCXCXCXCXCXCXCXCXCX",
"CXCXCXCXCXCXCXCXCXCXCXCXCXCXCXCXbX6XgX6Xh.].].<.d.z.;.>.a.q.u._.t.K.i.w.c.n.p.n.V.a.x.#X`.[.tX:X+XCXCXCXCXCXCXCXCXCXCXCXCXCXCXCX",
"CXCXCXCXCXCXCXCXCXCXCXCXCXCXCXCXCXBXgXaX;X|.].].l.h.k.d.2.a.a.c.Y.b.b.Y.E.E.^.Q.V.XX|.}.*X8X0XCXCXCXCXCXCXCXCXCXCXCXCXCXCXCXCXCX",
"CXCXCXCXCXCXCXCXCXCXCXCXCXCXCXCXCXCXCXsXMX;XXXuX|.g.#X[.d.].].d.XXN.Q.4X X XpX<X.XdX:X}.hXlXCXCXCXCXCXCXCXCXCXCXCXCXCXCXCXCXCXCX",
"CXCXCXCXCXCXCXCXCXCXCXCXCXCXCXCXCXCXCXCXCXBXMX;X2XrX`.[.2X].`.>Xl.2X6X=XaXuX.XuXMX#XwXCXCXCXCXCXCXCXCXCXCXCXCXCXCXCXCXCXCXCXCXCX",
"CXCXCXCXCXCXCXCXCXCXCXCXCXCXCXCXCXCXCXCXCXCXCXCXjX0X8X8X2X2X2X2X&X:X2XuXgXdXrXsXCXCXCXCXCXCXCXCXCXCXCXCXCXCXCXCXCXCXCXCXCXCXCXCX",
"CXCXCXCXCXCXCXCXCXCXCXCXCXCXCXCXCXCXCXCXCXCXCXCXCXCXCXCXCXlXlXCXlXCXeXlXCXCXCXCXCXCXCXCXCXCXCXCXCXCXCXCXCXCXCXCXCXCXCXCXCXCXCXCX",
"CXCXCXCXCXCXCXCXCXCXCXCXCXCXCXCXCXCXCXCXCXCXCXCXCXCXCXCXCXCXCXCXCXCXCXCXCXCXCXCXCXCXCXCXCXCXCXCXCXCXCXCXCXCXCXCXCXCXCXCXCXCXCXCX",
"CXCXCXCXCXCXCXCXCXCXCXCXCXCXCXCXCXCXCXCXCXCXCXCXCXCXCXCXCXCXCXCXCXCXCXCXCXCXCXCXCXCXCXCXCXCXCXCXCXCXCXCXCXCXCXCXCXCXCXCXCXCXCXCX",
"CXCXCXCXCXCXCXCXCXCXCXCXCXCXCXCXCXCXCXCXCXCXCXCXCXCXCXCXCXCXCXCXCXCXCXCXCXCXCXCXCXCXCXCXCXCXCXCXCXCXCXCXCXCXCXCXCXCXCXCXCXCXCXCX"
};
