/* XPM */
static char *YmxhY2tob2xlNC04[] = {
/* columns rows colors chars-per-pixel */
"64 64 243 2 ",
"   c #040607",
".  c #050508",
"X  c #06070A",
"o  c #09090D",
"O  c #0C0B11",
"+  c #0E0E14",
"@  c #0E0F16",
"#  c #0D1119",
"$  c #0C121C",
"%  c #0A151D",
"&  c #0A1520",
"*  c #0B1523",
"=  c #091724",
"-  c #0C1527",
";  c #0C172C",
":  c #0C1928",
">  c #0E1B2D",
",  c #0A1930",
"<  c #0A1D33",
"1  c #091B37",
"2  c #0B1F39",
"3  c #0C1E3D",
"4  c #0F2134",
"5  c #0F2439",
"6  c #08233D",
"7  c #0E2241",
"8  c #0A2A47",
"9  c #112245",
"0  c #112747",
"q  c #182D47",
"w  c #12274B",
"e  c #172A4F",
"r  c #112C4E",
"t  c #162F53",
"y  c #182B54",
"u  c #0B3452",
"i  c #0D385A",
"p  c #0C3F5E",
"a  c #1F3452",
"s  c #133158",
"d  c #15355D",
"f  c #1B3159",
"g  c #1C335E",
"h  c #23385D",
"j  c #1C3563",
"k  c #143962",
"l  c #173D68",
"z  c #1E3969",
"x  c #213C63",
"c  c #0F4663",
"v  c #0D416B",
"b  c #0F4A6C",
"n  c #16406E",
"m  c #1F4270",
"M  c #134A72",
"N  c #104876",
"B  c #194679",
"V  c #1C4F7B",
"C  c #155671",
"Z  c #13507C",
"A  c #2F4364",
"S  c #29416A",
"D  c #254571",
"F  c #234876",
"G  c #2D4B77",
"H  c #244F7F",
"J  c #304770",
"K  c #384D70",
"L  c #384F75",
"P  c #3F5276",
"I  c #30507B",
"U  c #3A557D",
"Y  c #435678",
"T  c #43597F",
"R  c #495B7D",
"E  c #174D83",
"W  c #1A5585",
"Q  c #185C83",
"!  c #1A598F",
"~  c #295786",
"^  c #22598A",
"/  c #385884",
"(  c #3D5B87",
")  c #325D8C",
"_  c #3A618E",
"`  c #236290",
"'  c #2A6597",
"]  c #206D9D",
"[  c #396896",
"{  c #306D9C",
"}  c #3D709D",
"|  c #2D78A6",
" . c #267CAE",
".. c #3675A5",
"X. c #435F87",
"o. c #4A5F83",
"O. c #4C6288",
"+. c #52678A",
"@. c #596B8C",
"#. c #426893",
"$. c #4C6991",
"%. c #516F96",
"&. c #48709B",
"*. c #597093",
"=. c #5D7497",
"-. c #5C7A9D",
";. c #627393",
":. c #617799",
">. c #647C9F",
",. c #687998",
"<. c #4D77A1",
"1. c #417BA7",
"2. c #4D7EA8",
"3. c #557CA5",
"4. c #5E7BA1",
"5. c #2584B9",
"6. c #3087B6",
"7. c #6F809D",
"8. c #76859E",
"9. c #4B83AF",
"0. c #5F81A4",
"q. c #5785AC",
"w. c #4F88B4",
"e. c #418BB8",
"r. c #4C8BB9",
"t. c #578AB2",
"y. c #5893BB",
"u. c #6980A1",
"i. c #6987A7",
"p. c #6188AB",
"a. c #6D8CAE",
"s. c #7185A0",
"d. c #7089A6",
"f. c #778CA7",
"g. c #7C90AA",
"h. c #7892AF",
"j. c #638FB3",
"k. c #6892B5",
"l. c #6093B8",
"z. c #6196BD",
"x. c #6B9BBD",
"c. c #7096B5",
"v. c #7C9AB5",
"b. c #739FBD",
"n. c #288EC4",
"m. c #279CCF",
"M. c #3996C3",
"N. c #369ACC",
"B. c #2FAAD7",
"V. c #3DAED9",
"C. c #4B97C3",
"Z. c #5B9CC4",
"A. c #649EC3",
"S. c #43A0CB",
"D. c #4FA4CD",
"F. c #5EA1CC",
"G. c #4CADD7",
"H. c #5CAAD0",
"J. c #69A0C2",
"K. c #6FA5C9",
"L. c #6DABCF",
"P. c #78A3C1",
"I. c #7EA9C7",
"U. c #6EB2D7",
"Y. c #7CB1D1",
"T. c #77BBDC",
"R. c #4EB9E1",
"E. c #66BCE0",
"W. c #34C2E8",
"Q. c #4DC7EB",
"!. c #57C5E8",
"~. c #6FC9EA",
"^. c #7ACBE7",
"/. c #8291A9",
"(. c #8495AA",
"). c #8195AE",
"_. c #8B99AD",
"`. c #8398B2",
"'. c #899CB5",
"]. c #919EB2",
"[. c #81A1BA",
"{. c #87A3BC",
"}. c #8CA1B8",
"|. c #96A3B6",
" X c #99A7B7",
".X c #92A3B9",
"XX c #93A7BF",
"oX c #99A8B9",
"OX c #99A8BA",
"+X c #9BAABF",
"@X c #A0ADBC",
"#X c #83A7C2",
"$X c #8BA9C2",
"%X c #8CAEC5",
"&X c #82ADCA",
"*X c #97ADC2",
"=X c #9EAEC3",
"-X c #89B3CD",
";X c #9AB1C1",
":X c #9EB1C2",
">X c #99B1C7",
",X c #9FB6C6",
"<X c #94B4CA",
"1X c #90B5CE",
"2X c #96B6CC",
"3X c #9FB7CC",
"4X c #80B9D5",
"5X c #88BBD7",
"6X c #96BBD3",
"7X c #90BED7",
"8X c #A7B3C3",
"9X c #A0B3C5",
"0X c #A6B7C7",
"qX c #A6B7CA",
"wX c #A7BCCF",
"eX c #A9B8C8",
"rX c #AAB8C9",
"tX c #AFBBCC",
"yX c #AABDCD",
"uX c #AABCCE",
"iX c #A1BFD3",
"pX c #B1BFD0",
"aX c #9DC0D7",
"sX c #9CCADF",
"dX c #A9C1D2",
"fX c #A2C5D8",
"gX c #ACC8DC",
"hX c #B2C1D3",
"jX c #B2C5D7",
"kX c #B9C7D6",
"lX c #B3C6D9",
"zX c #B8C8D8",
"xX c #BDCDDD",
"cX c #A6D1DE",
"vX c #90C7E0",
"bX c #92D2EC",
"nX c #99D8F1",
"mX c #A4D5EA",
"MX c #B3D1E4",
"NX c #B4D5E5",
"BX c #B3E0EE",
"VX c #C0E5F6",
"CX c None",
/* pixels */
"CXCXCXCXCXCXCXCXCXCXCXCXCXCXCXCXCXCXCXCXCXCXCXCXCXCXCXCXCXCXCXCXCXCXCXCXCXCXCXCXCXCXCXCXCXCXCXCXCXCXCXCXCXCXCXCXCXCXCXCXCXCXCXCX",
"CXCXCXCXCXCXCXCXCXCXCXCXCXCXCXCXCXCXCXCXCXCXCXCXCXCXCXCXCXCXCXCXCXCXCXCXCXCXCXCXCXCXCXCXCXCXCXCXCXCXCXCXCXCXCXCXCXCXCXCXCXCXCXCX",
"CXCXCXCXCXCXCXCXCXCXCXCXCXCXCXCXCXCXCXCXCXCXCXCXCXCXCXCXCXCXCXCXCXCXCXCXCXCXCXCXCXCXCXCXCXCXCXCXCXCXCXCXCXCXCXCXCXCXCXCXCXCXCXCX",
"CXCXCXCXCXCXCXCXCXCXCXCXCXCXCXCXCXCXCXCXCXCXCXCXCXCXNX9XgXhX|.pXOX8XlX9X9XzXeXCXCXCXCXCXCXCXCXCXCXCXCXCXCXCXCXCXCXCXCXCXCXCXCXCX",
"CXCXCXCXCXCXCXCXCXCXCXCXCXCXCXCXCXCXCXCXCXCXCXqXMX*X<XMX6X%XiX(.9X=X`.qXqX_.,XjX:XuXCXCXCXCXCXCXCXCXCXCXCXCXCXCXCXCXCXCXCXCXCXCX",
"CXCXCXCXCXCXCXCXCXCXCXCXCXCXCXCXCXCXCXCXuX8X,XqXqX1X1X1X1X-X-X).`.).v.`.'.'.]..X>XiXfXuXCXCXCXCXCXCXCXCXCXCXCXCXCXCXCXCXCXCXCXCX",
"CXCXCXCXCXCXCXCXCXCXCXCXCXCXCXCXCXCX,XjXoX(.qX%XP.vX5Xb.&X&Xk.#Xi.d.`.s.,.'.g.s.*XXX`.qXMX<XCXCXCXCXCXCXCXCXCXCXCXCXCXCXCXCXCXCX",
"CXCXCXCXCXCXCXCXCXCXCXCXCXCXCXCXCXpXiX_..X*Xg.v.#Xc.x.P.J.l.x.z.U.x.>.i.f.;.d.h.u.f.}.).{.mXsXcXCXCXCXCXCXCXCXCXCXCXCXCXCXCXCXCX",
"CXCXCXCXCXCXCXCXCXCXCXCXCXCXCXeXOX=XOX/./.).d.a.a.p.>.4.3.q.y.y.H.E.C.t.-.@.:.7.,.7.g.f.).7X6XsXBXNXCXCXCXCXCXCXCXCXCXCXCXCXCXCX",
"CXCXCXCXCXCXCXCXCXCXCXCXCXCXoX9XwX).g.'.>.;.d.4.%.4.%.X.&.&.[ r.r.C.R.D.1.%.O.o.=.:.@.d.v.c.-XmXvXmXVXCXCXCXCXCXCXCXCXCXCXCXCXCX",
"CXCXCXCXCXCXCXCXCXCXCXCXCX=X9X.X/./.f.,.,.;.+.$.$.#.#./ U / ) ) [ ..M.R.R.1.X.o.X.$.*.*.4.c.P.Y.bXsXaXcXCXCXCXCXCXCXCXCXCXCXCXCX",
"CXCXCXCXCXCXCXCXCXCXCXCX@X_.=X'.d.h.i.*.;.+.Y U ) ) ) ) ~ D ~ ^ { ' | B.Q.B...( K U $.O.+.p.x.A.vXvX%XiXjXCXCXCXCXCXCXCXCXCXCXCX",
"CXCXCXCXCXCXCXCXCXCXCX].=X>Xf.f.h.=.+.@.o.L Y K D ~ ~ E ~ V B ^ W ! ' n.W.Q.M. .) K I #.O.X.t.K.A.4X7X[..XjXCXCXCXCXCXCXCXCXCXCX",
"CXCXCXCXCXCXCXCXCXCXqX3X$X).f.u.:.@.o.Y K J x D x F ! ! ! W E E E Z n Z 5.W.B.6.6.D F I U T <.q.A.L.b.v.}.+XuXCXCXCXCXCXCXCXCXCX",
"CXCXCXCXCXCXCXCXCX:XXXaX#Xi.h.:.o.o.o.J J G z z x j x k k l N l n n l g n ] m.5. .` x D D U [ } l.A.p.v.'.g.3XkXCXCXCXCXCXCXCXCX",
"CXCXCXCXCXCXCXCX XqX>Xh.P.P.q.<.&./ D J x g g f e 0 9 2 2 2 3 w s k l s w d Z  .] ` j h S S _ 1.1.y.l.p.d.}.$X].CXCXCXCXCXCXCXCX",
"CXCXCXCXCXCXCXCXXX*X{.h.c.j.2.[ ( J x h f e w 6 2 1 < , < , - ; , 1 0 t w 2 7 v ` W n f g x ~ [ e.C.q.p.i.h.{.].eXCXCXCXCXCXCXCX",
"CXCXCXCXCXCXCX0XgX'.k.P.j.9.2.( S S z g f e 3 2 2 1 , ; - ; - * - * = ; 6 3 ; 2 k N N l d f m H e.S.1.q.j.0.[.*X(.CXCXCXCXCXCXCX",
"CXCXCXCXCXCXNXaX-X-XI.A.Z.w._ I S f y e w 9 9 1 > ; - - = $ * * * * = = : 1 < - < s v N N f f B | S.9.&.3.k.c.h.XX:XCXCXCXCXCXCX",
"CXCXCXCXCXCXgXaXI.4XT.Z.t.<.~ D h e 9 9 6 9 2 1 - - % % % % % * = - = * * - < - - < s Z Z d e g W B.e.} <.j.j.a.XXXXCXCXCXCXCXCX",
"CXCXCXCXCXCX%X7XbXT.A.z.&.I J x e w e y y w 3 ; - ; 1 6 6 < ; * = % = = = : = > : * 2 b Q d r 0 n N.6.} 2.2.l.P.d.'.dXCXCXCXCXCX",
"CXCXCXCXCXfXsX7X5XJ.q.&._ G x j f y f y 3 ; ; ; 1 < < < ; - : * % = % $ $ * = = , * * 8 Q k s 3 t  .6.{ 1.w.t.j.b.[..XCXCXCXCXCX",
"CXCXCXCXCX<XmXvXA.A.t.#.P A h s e 7 9 3 ; 1 9 1 ; % $ # # + + + + % # # + + % = = > = ; c b t 0 0 ` 6.{ ..9.2.q.Y.v.g.uXCXCXCXCX",
"CXCXCXCXCXBX4X4XT.y.<.o.x x z x e y 7 1 3 1 * $ @ # # @ + o O O O + + + # + O $ = : = * 8 C r r 9 N ] ] [ [ 9.A.z.c.*X_.CXCXCXCX",
"CXCXCXCXfXvX5XY.K.w.X.K x B B x g 9 ; ; - * % $ # + + # $ # # + + + O + + # O O # * = * < c i u 9 l ` ' ~ [ 9.y.A.b.#X}.CXCXCXCX",
"CXCXCXCXiX#X7XK.3.%.O.x F W E j 6 ; - ; - = * # + + $ + + + O o o o o O O O O O + $ = % : u b u w d N ^ m } 9.2.L.Y.c.>XhXCXCXCX",
"CXCXCXCXiX6Xb.a.>.X.L I H E j 7 < ; ; ; - $ + + # $ # # + o X . . . . o o O O O O + % % = 6 C u s f k B m ' 1.w.y.U.&X#X2XCXCXCX",
"CXCXCXCXfX1Xi.>.=.R I G z y 9 3 , ; - % $ + + $ $ $ + O o o X . . . . X o . o o o O $ % % < C i k t t l m ~ } w.y.U.Y.&XfXCXCXCX",
"CXCXCXNX<Xf.f.,.R O.U j m z y 7 , - * * $ + % = $ + o o o o X . . . . . . . . X O O + % % > C p c 8 t f B ~ [ } l.L.J.bXmXCXCXCX",
"CXCXCXeX.X/.8.;.%._ J ~ ! E z 9 , ; - * $ % - * $ O o o X X . . . X . . . . . X o o + % % > c c c 6 r s V ~ ) X.2.L.T.5XvXCXCXCX",
"CXCXCXpX].s.I.A.&.X... .5.5.! g 7 1 * $ - % % # O o o X . . . X X   . . X . . . . o + % % > u p 8 3 w d l H J / t.A.x.#XmXCXCXCX",
"CXCXCXCX].v.K.z.$.1.e. .m.n.! f y 9 * * = # % O O o X X .   . X     . . . . . .   O # % % 4 u u 2 7 7 k l F G _ <.A.x.&XsXCXCXCX",
"CXCXCXCX|.<Xk.p.q.C.M.B.m.5.B l N w ; , $ % % O O o o X . . . X .       . . . . . + + # % 5 8 8 2 9 0 d m z I $.&.A.Y.Y.7XCXCXCX",
"CXCXCXeX.Xh.h.>.w.C.M.n.m.] E j l 1 , ; # - % + o o o X . . . X .         . . . X + + $ - 5 6 6 6 6 s t n D I ( 3.U.L.bXvXCXCXCX",
"CXCXCXeX.Xf.f.j.w.w.N.B.5.] j f 9 ; 1 * - , % + O O o o X . o . X     . . . . o + + + % : : 6 8 6 8 d k n F I ( y.~.^.bXfXCXCXCX",
"CXCXCXCX|.XXk.z.F.C.V.V. .E y 9 1 - 1 * 6 < = + O O o O o . . . X X . X . . o O + o # % % : 8 6 5 u v l F m / t.H.~.nX5X%XCXCXCX",
"CXCXCXCX+X%XP.c.F.G.R.N.' f 9 4 , ; 1 7 u 6 < $ O o o o o   . . o X . . . X o O O # # # % 4 8 2 1 i l l F H } D.E.~.^.vX9XCXCXCX",
"CXCXCXCX3Xv.{.k.y.F.G.6.H h 3 3 , , 1 i c 8 6 : O o O O + . . . X o .   . X o O + # + + - 5 2 : 6 s l N V _ S.R.~.^.T.nXNXCXCXCX",
"CXCXCXCXdX3Xf.c.K.r.C.M.D q y 9 1 1 3 l b i 8 > + O O O O o X . X . o o o O # + # # $ = : < * > 8 d l V ) M.!.~.H.T.nX7XCXCXCXCX",
"CXCXCXCXuX*X'.P.A.H.D.1.x x j y 3 3 7 v M p r ; = O O O O + X o o o o O + + # $ # # $ = : : * 2 d M V ^ M.Q.!.H.K.4XvX6XCXCXCXCX",
"CXCXCXCXCX'.aX&XA.E.J...J x x j 8 9 9 v C p u < : + + O + O o . X X o + O O + + @ + % * = = 2 i M V ) 6.V.!.H.y.Y.4X[.fXCXCXCXCX",
"CXCXCXCXCXgX%X&X4XU.Z.r.L J x z 0 y w k Q v u 2 - = + O + $ + o o o o o O O + @ $ $ $ % > 6 r k M `  .6.G.G.Z.K.x.I.aXCXCXCXCXCX",
"CXCXCXCXCXzX<X1X5XL.H.y.X.J x D e z e l Q Z s 6 : - # + + + $ O + O O O + + + + + $ - > , 7 d M { | | S.R.D.J.P.b.$XfXCXCXCXCXCX",
"CXCXCXCXCXCXMX6XP.4XT.9.&.T A F h m w l N ] y r - * * # + + + + O # + + + # + $ = % * - 5 i Z ' ] 6.V.V.D.A.k.k.6X1X+XCXCXCXCXCX",
"CXCXCXCXCXCX9X*X6X4XL.j.<.Y L G h B e d N ] k s ; = - - # # $ + + + $ $ + $ $ $ $ * - > 6 e l V | M.C.G.Z.j.b.&X%XaXCXCXCXCXCXCX",
"CXCXCXCXCXCXCX=XmX7Xb.b.q.T o.K S F f d Z W Z w 7 ; % , , % = + $ = : : - % % - * : > 4 0 l W ` ..e.C.Z.j.p.P.6X#X,XCXCXCXCXCXCX",
"CXCXCXCXCXCXCXuX%XvX-Xk.x.>.Y P ( S h m W N ! y y < ; * < 2 = % $ % - > < < < > > 5 0 t l l F _ { 9.y.q.j.&X#X[.gXCXCXCXCXCXCXCX",
"CXCXCXCXCXCXCXCXqXiX%XI.K.i.@.R X.K D F ^ W ` l k d 4 > > 7 8 > ; - : < 6 6 2 5 5 0 r f x D G ) #.3.y.x.b.[.%X*XeXCXCXCXCXCXCXCX",
"CXCXCXCXCXCXCXCXCX3X}.aXI.i.7.@.X.o.P D ~ ' | W n l d 0 2 9 t < > : : 4 5 9 0 r r f x x S U / U %.=.*.h.#Xv.>XjXCXCXCXCXCXCXCXCX",
"CXCXCXCXCXCXCXCXCXzXwX$X%X$X,.;.:.O.Y Y G ~ ..' n m z l t r y t 5 4 4 5 5 q 0 e h h h A K K R @.+.:.g.f.[.3X:XCXCXCXCXCXCXCXCXCX",
"CXCXCXCXCXCXCXCXCXCXjX*X*X.X8.7.7.*.O.O.P / _ ' ~ S m a x j l n k q q q q h h a h A A K Y Y +.;.:.d.`.`.}.qXCXCXCXCXCXCXCXCXCXCX",
"CXCXCXCXCXCXCXCXCXCXCXxX*X/.oX/.,.d.,.O.+.O.U _ } J S A a h F V ~ H h S G S I U J K R Y R :.:.=.`.).f.=XqXCXCXCXCXCXCXCXCXCXCXCX",
"CXCXCXCXCXCXCXCXCXCXCXCXrX8X]._.`.f.,.u.*.+.+.$.&.#.L G A A G I G I _ I J L U U T R o.@.;.;.s.).v.'.=X+XCXCXCXCXCXCXCXCXCXCXCXCX",
"CXCXCXCXCXCXCXCXCXCXCXCXCXjX].|.=X`.f.g.,.@.,.*.<.q.O.Y Y T K #.[ _ _ / U o.R Y *.=.*.u.s.,.).>X[.>XlXCXCXCXCXCXCXCXCXCXCXCXCXCX",
"CXCXCXCXCXCXCXCXCXCXCXCXCXCXkX8X_.3X*X8.(.(.;.,.a.3.3.:.R o.@.#.3.3.<.%.*.%.0.j.-.>.h.8.s.XX$X{.MXdXCXCXCXCXCXCXCXCXCXCXCXCXCXCX",
"CXCXCXCXCXCXCXCXCXCXCXCXCXCXCXCXqXqX>X.X'./.g.8.s.a.a.u.;.;.:.*.4.4.-.4.p.k.A.b.b.v.v.`.}.XX+X9XuXCXCXCXCXCXCXCXCXCXCXCXCXCXCXCX",
"CXCXCXCXCXCXCXCXCXCXCXCXCXCXCXCXCX;X9XlX*X/.=X_.s.}.`.i.f.f.;.h.>.u.g.,.i.-XI.b.$X'.g.*XeX].0XCXCXCXCXCXCXCXCXCXCXCXCXCXCXCXCXCX",
"CXCXCXCXCXCXCXCXCXCXCXCXCXCXCXCXCXCXCX9XhXpX].|.=X(.v.XX/.s.`.8.).v.8.(.}.v.-XsX1X<XwXoXoXkXCXCXCXCXCXCXCXCXCXCXCXCXCXCXCXCXCXCX",
"CXCXCXCXCXCXCXCXCXCXCXCXCXCXCXCXCXCXCXCXCXzX,X8XqXoX|.=X]._..X_..X}.'..XoX}.=XqX>XwXjXCXCXCXCXCXCXCXCXCXCXCXCXCXCXCXCXCXCXCXCXCX",
"CXCXCXCXCXCXCXCXCXCXCXCXCXCXCXCXCXCXCXCXCXCXCXCX;XxXtX].8XtX_.tX|.|.hXOX|.hX8X XCXCXCXCXCXCXCXCXCXCXCXCXCXCXCXCXCXCXCXCXCXCXCXCX",
"CXCXCXCXCXCXCXCXCXCXCXCXCXCXCXCXCXCXCXCXCXCXCXCXCXCXCXCXCXCXpXCXpXeXCXpXCXCXCXCXCXCXCXCXCXCXCXCXCXCXCXCXCXCXCXCXCXCXCXCXCXCXCXCX",
"CXCXCXCXCXCXCXCXCXCXCXCXCXCXCXCXCXCXCXCXCXCXCXCXCXCXCXCXCXCXCXCXCXCXCXCXCXCXCXCXCXCXCXCXCXCXCXCXCXCXCXCXCXCXCXCXCXCXCXCXCXCXCXCX",
"CXCXCXCXCXCXCXCXCXCXCXCXCXCXCXCXCXCXCXCXCXCXCXCXCXCXCXCXCXCXCXCXCXCXCXCXCXCXCXCXCXCXCXCXCXCXCXCXCXCXCXCXCXCXCXCXCXCXCXCXCXCXCXCX",
"CXCXCXCXCXCXCXCXCXCXCXCXCXCXCXCXCXCXCXCXCXCXCXCXCXCXCXCXCXCXCXCXCXCXCXCXCXCXCXCXCXCXCXCXCXCXCXCXCXCXCXCXCXCXCXCXCXCXCXCXCXCXCXCX"
};
