/* XPM */
static char *_01b5dc620af4cc5aeb046b738f064e9b7cb2MOuByVJbFoL[] = {
/* columns rows colors chars-per-pixel */
"64 64 204 2 ",
"   c None",
".  c #1C4520",
"X  c #1F4621",
"o  c #1E532D",
"O  c #1E582C",
"+  c #1F5B32",
"@  c #244C24",
"#  c #255228",
"$  c #285529",
"%  c #255D2E",
"&  c #29582B",
"*  c #2C5D2D",
"=  c #2D5E2E",
"-  c #235F30",
";  c #315B30",
":  c #3A5D35",
">  c #1F6737",
",  c #30612F",
"<  c #286030",
"1  c #2A6130",
"2  c #2B6733",
"3  c #246836",
"4  c #2A6935",
"5  c #226F3A",
"6  c #316631",
"7  c #336535",
"8  c #3B6435",
"9  c #346933",
"0  c #376C34",
"q  c #366F37",
"w  c #3C6C33",
"e  c #2E7138",
"r  c #2A7F3F",
"t  c #3E7737",
"y  c #3B7139",
"u  c #36783A",
"i  c #347C3D",
"p  c #3F7F3B",
"a  c #415839",
"s  c #604D36",
"d  c #44603B",
"f  c #416D3A",
"g  c #426E3A",
"h  c #446D39",
"j  c #437135",
"k  c #47703D",
"l  c #457B39",
"z  c #477F3B",
"x  c #4E7D39",
"c  c #247B41",
"v  c #725F43",
"b  c #4E6B48",
"n  c #566E4F",
"m  c #517444",
"M  c #527841",
"N  c #547845",
"B  c #5C7B4C",
"V  c #6F614C",
"C  c #7B674C",
"Z  c #637747",
"A  c #6B704A",
"S  c #696051",
"D  c #6A6052",
"F  c #6F6454",
"G  c #63685A",
"H  c #7A6A52",
"J  c #756758",
"K  c #617B56",
"L  c #6E6E6D",
"P  c #707170",
"I  c #727271",
"U  c #747474",
"Y  c #767777",
"T  c #787879",
"R  c #7A7B7B",
"E  c #7D7C7A",
"W  c #7D7D7E",
"Q  c #7D7E7E",
"!  c #816B49",
"~  c #84704E",
"^  c #85704F",
"/  c #8C7751",
"(  c #8F7B56",
")  c #8C7A5A",
"_  c #8A7C61",
"`  c #897E66",
"'  c #847F79",
"]  c #49833C",
"[  c #4F853C",
"{  c #4C8A3E",
"}  c #4F8E3F",
"|  c #50833A",
" . c #59873B",
".. c #558B3D",
"X. c #5A8E3D",
"o. c #53903D",
"O. c #559942",
"+. c #5F9940",
"@. c #5A8158",
"#. c #689C40",
"$. c #719E40",
"%. c #668D54",
"&. c #698958",
"*. c #6E9356",
"=. c #73975D",
"-. c #5DA243",
";. c #5FA644",
":. c #61A644",
">. c #66AA43",
",. c #63AB44",
"<. c #6FA942",
"1. c #69AF44",
"2. c #6FA24F",
"3. c #77A841",
"4. c #78AE41",
"5. c #71B043",
"6. c #71B844",
"7. c #7A8D6F",
"8. c #7F807E",
"9. c #7E9173",
"0. c #7BC142",
"q. c #9F895D",
"w. c #8DBE41",
"e. c #978460",
"r. c #978767",
"t. c #958875",
"y. c #8A9F77",
"u. c #839479",
"i. c #8C907C",
"p. c #88977D",
"a. c #869F7A",
"s. c #9E937C",
"d. c #AD9767",
"f. c #B69F6C",
"g. c #8AA57C",
"h. c #90A67F",
"j. c #93B779",
"k. c #88C541",
"l. c #808180",
"z. c #808282",
"x. c #848583",
"c. c #848585",
"v. c #878887",
"b. c #8B8B88",
"n. c #8F8D88",
"m. c #8C8D8B",
"M. c #8F9F82",
"N. c #939392",
"B. c #9C9C9B",
"V. c #9D9D9C",
"C. c #98B280",
"Z. c #9AB887",
"A. c #9FB192",
"S. c #A0BB89",
"D. c #AFA395",
"F. c #A4AD9B",
"G. c #A7B39F",
"H. c #ABBB99",
"J. c #AEBE9C",
"K. c #A6A5A4",
"L. c #A7A6A5",
"P. c #ABA9A8",
"I. c #B2BDA5",
"U. c #B5BFAB",
"Y. c #B8B6B7",
"T. c #BDBCBC",
"R. c #C2BAAC",
"E. c #C5BDB2",
"W. c #B2C592",
"Q. c #BDC8B1",
"!. c #C0C7BA",
"~. c #C0C0BE",
"^. c #C0C6BC",
"/. c #CDC5B9",
"(. c #C5D6B7",
"). c #C7C7C5",
"_. c gray78",
"`. c #CDD3C5",
"'. c #D0D6C9",
"]. c #D0D1CF",
"[. c #D2D1CF",
"{. c #D3D9CE",
"}. c #D5D5D3",
"|. c #DEDFDD",
" X c #DFDFDF",
".X c #DBE2D4",
"XX c #DFE3DC",
"oX c #E0E1E1",
"OX c #E3E4E4",
"+X c #E8E7E8",
"@X c #E9EAEB",
"#X c #ECECEC",
"$X c #EDEEED",
"%X c #EFF0F1",
"&X c #F2F2F3",
"*X c #F2F3F4",
"=X c #F3F3F5",
"-X c #F6F7F7",
";X c #F6F6F8",
":X c #F7F8F8",
">X c #F8F9FA",
",X c #FAFAFB",
"<X c #FCFCFD",
"1X c white",
/* pixels */
"                                                                                                                                ",
"                                                                                                                                ",
"                                                                                                                                ",
"                                                                                                                                ",
"                                                                                                                                ",
"                                                                                                                                ",
"                                                                                                                                ",
"                                                                                                                                ",
"                                                                                                                                ",
"                                                                                                                                ",
"                                                                                                                                ",
"                                                                                                                                ",
"                                                                                                                                ",
"                                                                                                                                ",
"                                                                                                                                ",
"                                                                                                                                ",
"                                                                                                                                ",
"                                                                                                                                ",
"                                                                                                                                ",
"                                                                                                                                ",
"                                                                                                                                ",
"                                                          &X                    *X;X@X                                          ",
"                                                        %X&Xu.                %XXXg.+.                                          ",
"                                                        %XOX8         1X1X-X%X;XZ...[                                           ",
"                                                          %Xj M.1X1X<XQ.W.`.;XI.l w                                             ",
"                                                          -XA.& K 9.%.-.O.z b f 0 d $X%X                                        ",
"                                                        %X&X>Xm i e 4 1 ] = 3 6 8 J.Q.G.                                        ",
"                                                      :X;X Xh.*.e r c > % . O 6 0 1 # G                                         ",
"                                                    1X.Xj.X.| 7 p l p u y q 2 1 #. .N p.                                        ",
"                                                  1X{.X.w % ; H.6.6.o.4.1.>.t O X.3.#.j n                                       ",
"                                                  1XB * # a '.(.,.6.t ,.5.1.;.{ - 5.$.x f ^.                                    ",
"                                                1X7.@ # X   1XS.>.o.o +.k.1.6.{ - u <.x 6 d                                     ",
"                                                  $ :     1X1X=.-.+ 5 0 k.6.>.:.2 o f B ] *                                     ",
"                                                          1XF.M 7 O > @.C.6.>.O.6 1 #   g.f                                     ",
"                                                                b % 3 k V B 2...y.                                              ",
"                                                                  = , i.  |.g.{                                                 ",
"                                                                  U.A H     XX&.                                                ",
"                                                                  /.v                                                           ",
"                                                                1XJ C                                                           ",
"                                                                /./                                                             ",
"                                                              >Xt.~                                                             ",
"                                                          1X  oX( r.                                                            ",
"                                                        1X1X@XE.d.                                                              ",
"                                                        1XV.K.D.f.R.*X&X*X1X1X                                                  ",
"                                                    1X1X%Xv.Q s.d.}.%XT.Y.B.                                                    ",
"                                                  1XOXT.K.W z._ q.8.W U Y R P.-X                                                ",
"                                                1XT.R z.z.z.x.q.q.Y R R Y W R K.$X1X                                            ",
"                                                #XP z.I T Y Y ( ) z.m.m.c.z.L P E _.                                            ",
"                                                [.L.@X}.N.R U q.` z.z.z.c.[.[.                                                  ",
"                                                    ).b.  c.U ! F v.x.W W W +X                                                  ",
"                                                          >XP.) F z.                                                            ",
"                                                          ;X' ~ S c.                                                            ",
"                                                            n.s S                                                               ",
"                                                                                                                                ",
"                                                                                                                                ",
"                                                                                                                                ",
"                                                                                                                                ",
"                                                                                                                                ",
"                                                                                                                                ",
"                                                                                                                                ",
"                                                                                                                                ",
"                                                                                                                                ",
"                                                                                                                                ",
"                                                                                                                                "
};
