/* XPM */
static char *_a432071181f4b7dd0c828babebb2f56FrroVie1YdIGxEu9[] = {
/* columns rows colors chars-per-pixel */
"64 64 212 2 ",
"   c None",
".  c #1C4E28",
"X  c #1B572C",
"o  c #1D5C30",
"O  c #234926",
"+  c #265028",
"@  c #2A5629",
"#  c #22582C",
"$  c #2C5D2D",
"%  c #32522B",
"&  c #325C2E",
"*  c #235430",
"=  c #3A5F34",
"-  c #206032",
";  c #266233",
":  c #2A6130",
">  c #2B6537",
",  c #2C6833",
"<  c #326431",
"1  c #336B33",
"2  c #366831",
"3  c #346932",
"4  c #376E35",
"5  c #3C6C34",
"6  c #3A6838",
"7  c #3D6D3E",
"8  c #26763D",
"9  c #2E703A",
"0  c #3D7637",
"q  c #39763A",
"w  c #387A3B",
"e  c #53432F",
"r  c #6A573D",
"t  c #6D5A3F",
"y  c #4C6237",
"u  c #457737",
"i  c #447E3B",
"p  c #467F3A",
"a  c #4E7D39",
"s  c #594C40",
"d  c #625A4F",
"f  c #725F43",
"g  c #4F6747",
"h  c #4B6F40",
"j  c #516B47",
"k  c #497740",
"l  c #597649",
"z  c #5A7F4A",
"x  c #5F7452",
"c  c #716045",
"v  c #796546",
"b  c #7B674C",
"n  c #7E6A4A",
"m  c #647D5A",
"M  c #666E61",
"N  c #6D6E6D",
"B  c #6B7D62",
"V  c #7B7061",
"C  c #767E6F",
"Z  c #727372",
"A  c #737473",
"S  c #767777",
"D  c #767877",
"F  c #777978",
"G  c #787879",
"H  c #787979",
"J  c #7A7B79",
"K  c #7A7B7B",
"L  c #7D7D7E",
"P  c #806C4D",
"I  c #837157",
"U  c #897451",
"Y  c #817158",
"T  c #8E7A58",
"R  c #937F5C",
"E  c #49853D",
"W  c #4B873C",
"Q  c #4F8E3F",
"!  c #528D3E",
"~  c #5E8D3D",
"^  c #56943F",
"/  c #5C963F",
"(  c #63943D",
")  c #598244",
"_  c #529440",
"`  c #559842",
"'  c #599D43",
"]  c #5E944B",
"[  c #659B41",
"{  c #6B9F4F",
"}  c #60805D",
"|  c #6D955A",
" . c #5CA243",
".. c #64A643",
"X. c #6EA141",
"o. c #63AB44",
"O. c #69A843",
"+. c #6AAF44",
"@. c #6DB444",
"#. c #70B144",
"$. c #7EB441",
"%. c #71B844",
"&. c #7EBC43",
"*. c #7BAC50",
"=. c #6B8260",
"-. c #6C8365",
";. c #9D885E",
":. c #96846A",
">. c #918474",
",. c #998B74",
"<. c #829275",
"1. c #849579",
"2. c #88977E",
"3. c #AD9767",
"4. c #AF9866",
"5. c #A39068",
"6. c #B59F6B",
"7. c #B69F6B",
"8. c #80A16E",
"9. c #8AAA78",
"0. c #B7A375",
"q. c #CAB37A",
"w. c #CBB47A",
"e. c #81C342",
"r. c #88C541",
"t. c #7F8080",
"y. c #838281",
"u. c #808282",
"i. c #818382",
"p. c #858684",
"a. c #878786",
"s. c #8A8B87",
"d. c #8B8A89",
"f. c #8D8D8A",
"g. c #859F81",
"h. c #8C9982",
"j. c #8F9C84",
"k. c #999A8C",
"l. c #939290",
"z. c #949493",
"x. c #999897",
"c. c #989E97",
"v. c #9B9C9A",
"b. c #A89B82",
"n. c #A1998F",
"m. c #A99B88",
"M. c #A29990",
"N. c #A49F9A",
"B. c #9AA88E",
"V. c #98B184",
"C. c #98B586",
"Z. c #A3B88D",
"A. c #A0AE94",
"S. c #B2A992",
"D. c #A7B696",
"F. c #ADB09F",
"G. c #A6A5A4",
"H. c #ABA9A9",
"J. c #B0AEAE",
"K. c #AFB6A4",
"L. c #ABB9A1",
"P. c #BCB4A9",
"I. c #BDB4A9",
"U. c #B4BEAA",
"Y. c #B4B2B2",
"T. c #B8B7B7",
"R. c #C1BFBF",
"E. c #B7C8A3",
"W. c #BCC3B4",
"Q. c #CFC8B9",
"!. c #C8D1B9",
"~. c #C7C5C5",
"^. c #C9CDC3",
"/. c #CDCCCB",
"(. c #CECCCB",
"). c #D0CFCE",
"_. c #CBD0C4",
"`. c #CFD0C5",
"'. c #D2D5CF",
"]. c #D4DBCD",
"[. c #D1D1D0",
"{. c #D6D6D2",
"}. c #D7D7D6",
"|. c #D7DED2",
" X c #DADCD9",
".X c #DDDEDC",
"XX c #E0E6D8",
"oX c #E3E4E2",
"OX c #E6E6E5",
"+X c #E8E8E7",
"@X c #EAEEE6",
"#X c #EBECEC",
"$X c #ECECEC",
"%X c #EDEEEE",
"&X c gray94",
"*X c #F0F1F2",
"=X c #F1F2F3",
"-X c #F3F3F3",
";X c #F2F3F4",
":X c #F4F4F5",
">X c #F5F5F6",
",X c #F7F7F8",
"<X c #F7F8F8",
"1X c #F8F8F9",
"2X c #F8F9F9",
"3X c #FBFBFC",
"4X c #FCFBFC",
"5X c #FBFCFC",
"6X c #FCFCFD",
"7X c #FDFDFD",
"8X c #FDFDFE",
"9X c white",
/* pixels */
"                                                                                                                                ",
"                                                                                                                                ",
"                                                                                                                                ",
"                                                                                                                                ",
"                                                                                                                                ",
"                                                                                                                                ",
"                                                                                                                                ",
"                                                                                                                                ",
"                                                                                                                                ",
"                                                                                                                                ",
"                                                                                                                                ",
"                                                                                                                                ",
"                                                                                                                                ",
"                                                                                                                                ",
"                                                                                                                                ",
"                                                                                                                                ",
"                                                                                                                                ",
"                                                                                                                                ",
"                                                                                                                                ",
"                                                                                                                                ",
"                                                                                                                                ",
"                                                                                              9X                                ",
"                                                                                              9Xl                               ",
"                                                                                              .X2                               ",
"                                                                                            9X`.< D                             ",
"                                                                                              >X& @ ^.  *X*X          9X9X9X9X  ",
"                                                                                            *X2Xl 0 h !.].D.W.3X  9X9X!.C.V.9.k.",
"                                                                                      9X9XoXD.A.L.& w $ 0  ._ ] U.XX9.{ / ! Q   ",
"                                                                                    9X@X9.O.[ X.` ! 8 8 , 1 ! _ 1 z 0 4 u q     ",
"                                                                                9X*XD.) u 2 2 : 6 9 u 9 8 # $ . # 1 < m <.      ",
"                                                                            *X$XB.& + @ + g K.1XZ.@.^ ^ 2 0 * o < u 2 1 } g.    ",
"                                                                              B.@ @ O O c.3X>X+X+...+.E +.o.' 5 X ` u 1 # g C   ",
"                                                                                    *X'.2X2X*X| +.@./ #.@.%.` , X ( X.u B       ",
"                                                                                        ;X9X8._  .^ , #.&.o.+.p o / $.( & 2.    ",
"                                                                                      *Xh.6 5 0 W + # r.e.o.+.' $ p [ X.a =     ",
"                                                                                          F.E.A.o - > *.e.@.%.W , ; r.X.a @     ",
"                                                                                            9X<.$ o 7 Z.e.%.+.` : o ..X.u 5     ",
"                                                                                              oX$ $ -.r u O.^ Q 4 X < 1 a < M   ",
"                                                                                          2X9X4Xx y c N. X] W i 1.} + `.| 4 j   ",
"                                                                                  9X5X+XI.m.:.I r r K.  9Xz ^ k     j.  1XK.%   ",
"                                                                            >X9X+XM.,.R U U c V k.        <.E             -X    ",
"                                                                        >X$XP.,.3.w.T Y >.                |.                    ",
"                                                                    *X*X`.;.w.7.f         ,X-X                                  ",
"                                                                  *X>X+X0.5.n             9XH.G.                                ",
"                                                                9X&X#X5.7.                9Xf.G #X>X;X*X        9X9X2X*X        ",
"                                                                2X>XS.4.            9X9X9X3X~.N G T.#X.X2X9X9X9X9X+X{.R.        ",
"                                                              ,X2XQ.7.          <X2X4X$XR.H.Y.f.L G G A S f./.}.x.t.A           ",
"                                                            =X,XQ.U v       9X*X.XY.z.G S d.x.a.u.u.u.u.G G A G G z.[.          ",
"                                                            ;X X7.P         9Xd.G a.G A.>X9XJ.G t.u.u.u.G G S G G S z.          ",
"                                                            3X:.R r n.9X9X9X9X9X1X1X4X$XJ.a.K u.u.u.u.t.G S G G G K  X          ",
"                                                          =X'.U b e G.v.x.v.G.x.G.J.G.G A L u.u.a.-.L u.G G G G G G t.5X        ",
"                                                          *X0.:.b e L u.u.u.u.G A A A A A i.u.u.u.a.G.u.G G G G G G K OX        ",
"                                                          *XT P c s u.L                   2XY.K     ).f.G A A G S u.G H.        ",
"                                                            D d d M                                   G u.          F x.        ",
"                                                                                                                                ",
"                                                                                                                                ",
"                                                                                                                                ",
"                                                                                                                                ",
"                                                                                                                                ",
"                                                                                                                                ",
"                                                                                                                                ",
"                                                                                                                                ",
"                                                                                                                                ",
"                                                                                                                                "
};
