/* XPM */
static char *e9d6b30ecc654a8ef77257b265070a6f3Idzp39bFecnZpEN[] = {
/* columns rows colors chars-per-pixel */
"64 64 216 2 ",
"   c None",
".  c #4E3D2D",
"X  c #184524",
"o  c #1D4E27",
"O  c #184D2B",
"+  c #1E572B",
"@  c #214923",
"#  c #275227",
"$  c #205C2F",
"%  c #285A2C",
"&  c #2B5B2C",
"*  c #295B32",
"=  c #3A5E32",
"-  c #1F6033",
";  c #2B612F",
":  c #2E602E",
">  c #256132",
",  c #226634",
"<  c #2F6632",
"1  c #246C37",
"2  c #336334",
"3  c #356C33",
"4  c #376D34",
"5  c #3D6937",
"6  c #3A6C34",
"7  c #3E6E35",
"8  c #24773D",
"9  c #3B7136",
"0  c #3F7237",
"q  c #3F7437",
"w  c #3E7638",
"e  c #3E7938",
"r  c #625039",
"t  c #4A673C",
"y  c #466D3D",
"u  c #437236",
"i  c #457637",
"p  c #477637",
"a  c #427A39",
"s  c #447F3B",
"d  c #417F3C",
"f  c #4B7A38",
"g  c #507D39",
"h  c #5F5549",
"j  c #5B5853",
"k  c #6D5B42",
"l  c #645F55",
"z  c #467740",
"x  c #4E7E44",
"c  c #547347",
"v  c #557852",
"b  c #6E624E",
"n  c #766348",
"m  c #76644C",
"M  c #696051",
"N  c #7B6F5A",
"B  c #7F735E",
"V  c #646461",
"C  c #6D6A65",
"Z  c #727270",
"A  c #737473",
"S  c #747474",
"D  c #767777",
"F  c #777877",
"G  c #787879",
"H  c #787979",
"J  c #7A7B7B",
"K  c #7D7D7E",
"L  c #86714D",
"P  c #8C7751",
"I  c #887454",
"U  c #85755C",
"Y  c #8D7B59",
"T  c #927C56",
"R  c #45843D",
"E  c #4A803A",
"W  c #4C833B",
"Q  c #548C3D",
"!  c #5E903E",
"~  c #63903D",
"^  c #629C3E",
"/  c #348541",
"(  c #398640",
")  c #558241",
"_  c #4F9040",
"`  c #519542",
"'  c #579440",
"]  c #559740",
"[  c #589940",
"{  c #5A9B41",
"}  c #5A9D42",
"|  c #5F9449",
" . c #63934B",
".. c #62994E",
"X. c #6C9F4E",
"o. c #608350",
"O. c #6A8856",
"+. c #6B9156",
"@. c #7C985C",
"#. c #5CA343",
"$. c #6EA640",
"%. c #67AA43",
"&. c #69AF44",
"*. c #69A44F",
"=. c #73A647",
"-. c #75AD42",
";. c #6EB644",
":. c #7BB743",
">. c #7DBF42",
",. c #68A150",
"<. c #75A059",
"1. c #6E8465",
"2. c #6F8C61",
"3. c #728768",
"4. c #778B6D",
"5. c #7B8C6E",
"6. c #7F817E",
"7. c #7F9475",
"8. c #95815B",
"9. c #9A8359",
"0. c #81B250",
"q. c #8D806F",
"w. c #948466",
"e. c #9A8660",
"r. c #81817F",
"t. c #879A76",
"y. c #859778",
"u. c #869C79",
"i. c #89997F",
"p. c #8F9D7D",
"a. c #A79062",
"s. c #AD9866",
"d. c #B49D6C",
"f. c #80A361",
"g. c #89A07B",
"h. c #BCA66E",
"j. c #BDA875",
"k. c #C4AD75",
"l. c #88C541",
"z. c #8EC741",
"x. c #86C548",
"c. c #7F8080",
"v. c #818280",
"b. c #808282",
"n. c #828382",
"m. c #828383",
"M. c #858684",
"N. c #868887",
"B. c #8E8D8C",
"V. c #929D8A",
"C. c #989896",
"Z. c #9E9E9D",
"A. c #A09E9D",
"S. c #A09F9F",
"D. c #94A781",
"F. c #91A186",
"G. c #9AAC8C",
"H. c #9BAF8E",
"J. c #99B580",
"K. c #99B387",
"L. c #9AB983",
"P. c #9FA09E",
"I. c #A9A097",
"U. c #A3A5A1",
"Y. c #A5A4A3",
"T. c #AFACAB",
"R. c #AFBCA3",
"E. c #B0BDA3",
"W. c #B1BEA3",
"Q. c #B3B9A6",
"!. c #B2B0AF",
"~. c #B2B0B0",
"^. c #B6B4B3",
"/. c #B9B7B6",
"(. c #BCBABA",
"). c #BEBFBC",
"_. c #B6C2AB",
"`. c #BEC4B4",
"'. c #C8C1B8",
"]. c #C9D1BF",
"[. c #C1C1C0",
"{. c #C6C6C5",
"}. c #C8CDC3",
"|. c #C8CFC2",
" X c #CCCBCA",
".X c #D6D6D4",
"XX c #D6D6D5",
"oX c #D6DDD1",
"OX c #D8D8D5",
"+X c #DADBD9",
"@X c #DAD9DA",
"#X c #DADFD9",
"$X c #DEDFDD",
"%X c #DEE5D8",
"&X c #E0E1DF",
"*X c #E4E4E4",
"=X c #E8E7E8",
"-X c #EAEBEB",
";X c #EDEEED",
":X c #EEEFEF",
">X c #EFF0F1",
",X c #F2F2F3",
"<X c #F2F3F4",
"1X c #F4F4F5",
"2X c #F5F6F5",
"3X c #F4F4F6",
"4X c #F5F5F6",
"5X c #F6F6F8",
"6X c #F7F8F8",
"7X c #F8F9F9",
"8X c #F8F9FA",
"9X c #F9F9FA",
"0X c #FBFBFB",
"qX c gray99",
"wX c #FEFEFF",
"eX c white",
/* pixels */
"                                                                                                                                ",
"                                                                                                                                ",
"                                                                                                                                ",
"                                                                                                                                ",
"                                                                                                                                ",
"                                                                                                                                ",
"                                                                                                                                ",
"                                                                                                                                ",
"                                                                                                                                ",
"                                                                                                                                ",
"                                                                                                                                ",
"                                                                                                                                ",
"                                                                                                                                ",
"                                                                                                                                ",
"                                                                                                                                ",
"                                                                                                                                ",
"                                                                                                                                ",
"                                                                                                                                ",
"                                                                                                                                ",
"                                                                                                                                ",
"                                                                                                                                ",
"                                                                                                                                ",
"                                                              %X7X                                                              ",
"                                                              x :X                                                              ",
"                                          7XwXwXwX          W.4 W.wX                                                            ",
"                                          ,.+.H.u.Q.7X      a : g.wX                                                            ",
"                                          .._ R a 9 i.`.2Xt.# e = 7X,X                                                          ",
"                                            w 9 < 1 > @ 7.& u 3 5 `.7X,X                                                        ",
"                                          *X .{ W ; $ o + e < i q : c %X1X                                                      ",
"                                        *X*.! g 6 E f ; , X X 9 $.~ i c 1X                                                      ",
"                                    ].J.X.! f p E 5 2 ! d / R _.p.:.-.E 2.5X                                                    ",
"                                    <.' ) 7 W u.a O  .&.! / #.} K.%X .Q i +X                                                    ",
"                                              v , $ z.:.#.w ;.;.#.G.&XO.d W.                                                    ",
"                                            F.% , 8 x.>.{ d _ ] Q R @.|.9 _.                                                    ",
"                                            o.4 w * :.x.} 4 D.1.2.3.g.|.y.W.                                                    ",
"                                            0 f.4.  L.;.' o.7X                                                                  ",
"                                                      ' _ y 7X                                                                  ",
"                                                      V.q 5.7X>X                                                                ",
"                                                      &Xt m '.1X                                                                ",
"                                                          U k 1X6X                                                              ",
"                                                            T I.6X                                                              ",
"                                                            L w.7X                                                              ",
"                                                              8./.1X                                                            ",
"                                                              k.q.7X<X1X<X                                                      ",
"                                                  5XwXwXwXwX  a.n -X1XM.=X                                                      ",
"                                                    T.OX;XwX:Xs.d.(.~.S ^.1X                                                    ",
"                                                    I.S F M.~.s.d.q.J K c.0X7X                                                  ",
"                                                  qX{.b.H S G Y j.b b.b.b.B.S. X                                                ",
"                                              +X).H S D D N.c.N a.I K c.U K b.J !.                                              ",
"                                                  Z.Z.A.C.D G B h.U A c.B.).Y.b.r.                                              ",
"                                                    7XXXD H H M 9.n C G J D ^.[.F                                               ",
"                                                    @XD 6.U.m.M h.n C *X                                                        ",
"                                                              h e.k j -X                                                        ",
"                                                              l r . V XX                                                        ",
"                                                                                                                                ",
"                                                                                                                                ",
"                                                                                                                                ",
"                                                                                                                                ",
"                                                                                                                                ",
"                                                                                                                                ",
"                                                                                                                                ",
"                                                                                                                                ",
"                                                                                                                                ",
"                                                                                                                                "
};
