/* XPM */
static char *c5fdb8c545be4b8ee14fe4c6938b5a65sgKTcC9o9WWFVu9l[] = {
/* columns rows colors chars-per-pixel */
"64 64 207 2 ",
"   c None",
".  c #1C5029",
"X  c #1D5D33",
"o  c #254E25",
"O  c #29412A",
"+  c #21592E",
"@  c #2F5E2D",
"#  c #1F6233",
"$  c #236635",
"%  c #2D6131",
"&  c #2D6532",
"*  c #346530",
"=  c #3B6336",
"-  c #346832",
";  c #366D33",
":  c #3B6B33",
">  c #396F3E",
",  c #2C7D3F",
"<  c #3B7136",
"1  c #3C7035",
"2  c #3E7639",
"3  c #377F3E",
"4  c #464E2C",
"5  c #52402A",
"6  c #554737",
"7  c #594A3D",
"8  c #485638",
"9  c #634F36",
"0  c #6D5A3F",
"q  c #447235",
"w  c #457737",
"e  c #44713A",
"r  c #4D713D",
"t  c #427C3A",
"y  c #467D3A",
"u  c #477D3A",
"i  c #4A7B39",
"p  c #4A7E3A",
"a  c #584F42",
"s  c #685947",
"d  c #6D5E4B",
"f  c #725F43",
"g  c #517447",
"h  c #547D43",
"j  c #5A7351",
"k  c #73634E",
"l  c #72634F",
"z  c #7E6A4A",
"x  c #6D675E",
"c  c #7B6B52",
"v  c #7F705B",
"b  c #696D63",
"n  c #707E66",
"m  c #6F7170",
"M  c #747474",
"N  c #767777",
"B  c #787879",
"V  c #787979",
"C  c #7B7B7B",
"Z  c #7B7C7B",
"A  c #7D7D7E",
"S  c #7D7E7E",
"D  c #85714D",
"F  c #8C7751",
"G  c #8E7B5A",
"H  c #947F59",
"J  c #817466",
"K  c #897C67",
"L  c #887B6B",
"P  c #44813B",
"I  c #49833C",
"U  c #49853C",
"Y  c #49883E",
"T  c #50833B",
"R  c #57873E",
"E  c #53883D",
"W  c #558C3D",
"Q  c #54923E",
"!  c #588144",
"~  c #419546",
"^  c #4E9041",
"/  c #4E9343",
"(  c #589741",
")  c #599D42",
"_  c #689F41",
"`  c #60914F",
"'  c #72974D",
"]  c #668A56",
"[  c #628058",
"{  c #6B9657",
"}  c #71965B",
"|  c #5CA243",
" . c #5FA644",
".. c #64A042",
"X. c #63A542",
"o. c #63AB44",
"O. c #69AB42",
"+. c #7BB341",
"@. c #71A950",
"#. c #73A35D",
"$. c #6C8066",
"%. c #748769",
"&. c #798E6D",
"*. c #729063",
"=. c #79916D",
"-. c #7B9C6A",
";. c #7E9370",
":. c #7BC142",
">. c #98835A",
",. c #A98F5E",
"<. c #968363",
"1. c #91826D",
"2. c #82817D",
"3. c #908271",
"4. c #8C9D7F",
"5. c #A69063",
"6. c #A7936A",
"7. c #B69E6B",
"8. c #A19075",
"9. c #A59676",
"0. c #90A87F",
"q. c #94B97B",
"w. c #BBA56F",
"e. c #B0A07F",
"r. c #7F8080",
"t. c #808282",
"y. c #858584",
"u. c #848585",
"i. c #8A8A87",
"p. c #8B8A89",
"a. c #8E8E8D",
"s. c #8D9C82",
"d. c #909789",
"f. c #929190",
"g. c #959593",
"h. c #959494",
"j. c #979994",
"k. c #999897",
"l. c #9A9897",
"z. c #999998",
"x. c #9E9F9D",
"c. c #9F9F9D",
"v. c #A89B89",
"b. c #A39A91",
"n. c #A89F95",
"m. c #A39F9C",
"M. c #92A384",
"N. c #96AE85",
"B. c #95A58B",
"V. c #9AAC8C",
"C. c #9DAF91",
"Z. c #9EB490",
"A. c #B8A882",
"S. c #A2AE93",
"D. c #B4A796",
"F. c #B2A891",
"G. c #B8AB90",
"H. c #AFBD9D",
"J. c #A4A3A2",
"K. c #A6A8A4",
"L. c #ABABA7",
"P. c #ABA9A9",
"I. c #ADABAB",
"U. c #AFADAE",
"Y. c #AEB5A2",
"T. c #B2B1AE",
"R. c #B6BEA9",
"E. c #B3B2B1",
"W. c #BDBDBC",
"Q. c #B6C9A0",
"!. c #C0CBB2",
"~. c #C1C0BF",
"^. c #C5CBBA",
"/. c #C3C2C1",
"(. c #C5C3C2",
"). c #C8C6C6",
"_. c #C8C7C6",
"`. c #CAC9C8",
"'. c #CCCBCA",
"]. c #D0D0CD",
"[. c gray84",
"{. c #D6DDD1",
"}. c #D9DAD7",
"|. c #D9D8D9",
" X c #DAD9DA",
".X c #DBDADA",
"XX c #DEDFDD",
"oX c #DEE5D8",
"OX c #DFE6D8",
"+X c #E4E3DF",
"@X c #E5E6E4",
"#X c #E7E8E6",
"$X c #E9EBE7",
"%X c #EAEBEA",
"&X c gray94",
"*X c gray95",
"=X c #F2F2F3",
"-X c #F3F3F3",
";X c #F3F3F5",
":X c #F5F6F5",
">X c #F5F5F6",
",X c #F7F8F9",
"<X c #F9F9FA",
"1X c #F9FAFA",
"2X c #FBFBFC",
"3X c #FEFEFE",
"4X c white",
/* pixels */
"                                                                                                                                ",
"                                                                                                                                ",
"                                                                                                                                ",
"                                                                                                                                ",
"                                                                                                                                ",
"                                                                                                                                ",
"                                                                                                                                ",
"                                                                                                                                ",
"                                                                                                                                ",
"                                                                                                                                ",
"                                                                                                                                ",
"                                                                                                                                ",
"                                                                                                                                ",
"                                                                                                                                ",
"                                                                                                                                ",
"                                                                                                                                ",
"                                                                                                                                ",
"                                                                                                                                ",
"                                                                                                                                ",
"                                                                                                                                ",
"                                                                                                                                ",
"                            C.0.                                                                                                ",
"                            } < &X                                                                                              ",
"        -.( y               - 2 B.                                                                                              ",
"        oX{ T p ; e       r * @ n                                                                                               ",
"          Y.y - & # o $.% * p ; g                                                                                               ",
"          Z.( ..y - . . 3 X & i i - 4.&X                                                                                        ",
"          o.T : w q & + & . O W +...h >X-X                                                                                      ",
"         .R 1 E T = ) p , Y %.^.` +.T S.&X                                                                                      ",
"    #._ i R p q - 2 | o., ~ ) V.@X@...*.1X                                                                                      ",
"    N.` =.! s.[ > W  .o.P /  .X.V.+XE w 1X                                                                                      ",
"            ;.+ $ ..O.) ) t ) Q ( ] M.q >X                                                                                      ",
"            U ; : ' +.^ X.g (.Q.N.R.@Xj 2X                                                                                      ",
"          ;.&.!.H.Q.o.^ ( 8  X&X>X&X1X{.4X                                                                                      ",
"          4X4X2X4X$XU t P 4 k           4X                                                                                      ",
"                    q.< -.].7 9 J                                                                                               ",
"                      o d.2X#Xx s 0 1.D.                                                                                        ",
"                      b 1X    ,X_.K d H F z 9.v.                                                                                ",
"                                  4X$Xm.v c F H 7.6.3.                                                                          ",
"                                            /.K z D 7.w.G.                                                                      ",
"                                          [.      v.s G 5.G.:X                                                                  ",
"                                        }.C           n.G w.v.,X                                                                ",
"                    W.W.%X        `.'.P.A g.&X            c ,.A.+X                                                              ",
"                  @Xy.M C A k.C A t.C C V C M C /.        ;Xl D d                                                               ",
"                    2X'.x.r.r.r.r.r.A V B V M V B           ^.s >.F.                                                            ",
"                    j.r.N V V B V V A r.r.g.E.C u.a.          K z 7.                                                            ",
"                    $Xp.B B B B V B r.r.r.r.z.K.@X>X          b.k H 8.                                                          ",
"                    h.C B B N N B B A r.r.r.r.A t.h.U.U.S.h.g.p.5 0 D j.                                                        ",
"                    u.A M B B B B N J.V r.r.g.y.C M m m M M C M 6 z <.K t.                                                      ",
"                    V C x.M C V B r. X  Z h.4X    ]._.~.I.z.p.V a d D >.C                                                       ",
"                    f.XXT.L.,X`.m B 2X                         XL a a x A                                                       ",
"                                c.z.                                                                                            ",
"                                                                                                                                ",
"                                                                                                                                ",
"                                                                                                                                ",
"                                                                                                                                ",
"                                                                                                                                ",
"                                                                                                                                ",
"                                                                                                                                ",
"                                                                                                                                ",
"                                                                                                                                ",
"                                                                                                                                ",
"                                                                                                                                ",
"                                                                                                                                "
};
