/* XPM */
static char *_38eb1d21d0d40aff3639b70d2fcaea4mcXdo3w1KRQCHDjr[] = {
/* columns rows colors chars-per-pixel */
"64 64 164 2 ",
"   c None",
".  c #482E43",
"X  c #4E2649",
"o  c #413641",
"O  c #43384B",
"+  c #4F3C4E",
"@  c #473757",
"#  c #543C50",
"$  c #653D5F",
"%  c #673D61",
"&  c #763A6D",
"*  c #7D3E73",
"=  c #5F496E",
"-  c #6A4665",
";  c #654A66",
":  c #684E63",
">  c #6F436A",
",  c #75466F",
"<  c #78426F",
"1  c #744A6E",
"2  c #664C74",
"3  c #6C4973",
"4  c #714171",
"5  c #764872",
"6  c #7D4C75",
"7  c #824579",
"8  c #865B7B",
"9  c #3C498F",
"0  c #3E53A4",
"q  c #3E59A7",
"w  c #3E5CAA",
"e  c #3E62AE",
"r  c #3F66B0",
"t  c #3F6AB3",
"y  c #514A80",
"u  c #4C5181",
"i  c #44529E",
"p  c #505095",
"a  c #54539E",
"s  c #6C4882",
"d  c #6D4C93",
"f  c #734F9F",
"g  c #7D4E9F",
"h  c #64509F",
"j  c #4353A4",
"k  c #4C52A3",
"l  c #415DAA",
"z  c #5550A1",
"x  c #5B51A1",
"c  c #624FA1",
"v  c #6C4FA0",
"b  c #714FA0",
"n  c #6250A1",
"m  c #6951A1",
"M  c #605AA5",
"N  c #4063AE",
"B  c #4066B1",
"V  c #416CB4",
"C  c #4170B7",
"Z  c #4274BA",
"A  c #447ABE",
"S  c #656EB0",
"D  c #6B7AB7",
"F  c #7179B5",
"G  c #447EC1",
"H  c #924A87",
"J  c #96478A",
"K  c #924D89",
"L  c #994E8E",
"P  c #8D5284",
"I  c #8E548B",
"U  c #97518E",
"Y  c #834E9F",
"T  c #8C4E9E",
"R  c #9E4690",
"E  c #9E4F92",
"W  c #934D9D",
"Q  c #9C4D9D",
"!  c #975494",
"~  c #9E5492",
"^  c #905E9D",
"/  c #9E5F9B",
"(  c #A14B93",
")  c #A44C9C",
"_  c #AB4C9C",
"`  c #A15196",
"'  c #A45C95",
"]  c #A45198",
"[  c #AE519E",
"{  c #A05F9B",
"}  c #AF5B9E",
"|  c #B15F9F",
" . c #9C658F",
".. c #9D6990",
"X. c #93629F",
"o. c #9F609B",
"O. c #A36C93",
"+. c #A0609B",
"@. c #B26F9E",
"#. c #B155A0",
"$. c #B55BA3",
"%. c #B85FA5",
"&. c #8B64A2",
"*. c #8B6AA6",
"=. c #8F6FA8",
"-. c #946CA5",
";. c #8371AC",
":. c #A16BAC",
">. c #BA62A6",
",. c #BD66A8",
"<. c #B16DAC",
"1. c #BF68AA",
"2. c #B672A2",
"3. c #B975A6",
"4. c #C26CAC",
"5. c #C571AE",
"6. c #C673AF",
"7. c #C571AE",
"8. c #C774AF",
"9. c #C477AD",
"0. c #C473AD",
"q. c #C875AF",
"w. c #C578AD",
"e. c #C778AF",
"r. c #C578AE",
"t. c #C778AF",
"y. c #C775B0",
"u. c #C775B0",
"i. c #C977B1",
"p. c #C976B0",
"a. c #CA77B1",
"s. c #C875B0",
"d. c #C976B0",
"f. c #CA78B1",
"g. c #CB79B2",
"h. c #CA79B2",
"j. c #C878B0",
"k. c #CB79B2",
"l. c #6B85BF",
"z. c #7184BD",
"x. c #4581C2",
"c. c #4680C2",
"v. c #4681C2",
"b. c #4683C4",
"n. c #4685C5",
"m. c #4687C7",
"M. c #4584C5",
"N. c #4E85C4",
"B. c #4788C7",
"V. c #4788C8",
"C. c #478BC9",
"Z. c #478BCA",
"A. c #478ECC",
"S. c #468BCA",
"D. c #498ECB",
"F. c #5983C1",
"G. c #5489C6",
"H. c #4792CE",
"J. c #4892CE",
"K. c #4890CE",
"L. c #4992CE",
"P. c #5192CD",
"I. c #4895D1",
"U. c #4899D3",
/* pixels */
"                                                                                                                                ",
"                                                                                                                                ",
"                                O.3.d.g.f. .+                                                                                   ",
"                          O.2.f.g.g.g.g.g.d._ ( 7 5                                                                             ",
"                        8 j.f.g.g.g.g.g.g.s.#._ _ _ | 9...                                                                      ",
"                      : w.f.g.g.g.g.g.g.g.s.#._ _ _ $.f.f.9.                                                                    ",
"                      @.g.g.g.g.g.g.g.g.g.d.#._ _ _ [ f.f.g.e.3.                                                                ",
"                      9.g.g.g.g.g.g.g.g.g.s._ _ _ _ [ 9.f.g.g.g.e.O.                                                            ",
"                    O.f.f.g.g.g.g.g.g.g.g.%._ _ _ _ _ %.g.g.g.g.g.g.r.2.                                                        ",
"                    @.g.g.g.g.g.g.g.g.g.4._ _ _ _ _ _ _ 4.g.g.g.g.g.g.g.' #                                                     ",
"                    2.f.g.g.g.g.g.g.g.7.%.>.4.4.$._ _ _ _ $.4.u.u.u.1.>._ [ ~ 6                                                 ",
"                    ' 4.g.g.g.g.g.s.4.%.g.g.g.g.s.$._ _ _ _ _ [ [ [ [ _ %.9.f.d.>.L % o                                         ",
"                    ` _ $.,.4.4.>.#._ s.g.g.g.g.g.>._ _ _ [ [ _ ) _ _ _ u.f.g.g.9.[ _ _ ` K & 6 5 $ X -                         ",
"                    ] _ _ _ _ _ _ _ $.g.g.g.g.g.g.>._ _ _ 4.4.$._ _ _ _ g.f.g.g.d.$._ _ _ _ _ Q ) _ _ ] J 7                     ",
"                    ] _ _ _ _ _ _ _ #.d.g.g.g.g.g.$._ _ $.g.g.,._ _ _ _ d.g.g.g.d.#.) Y x j 0 0 0 0 k n T ) ] .                 ",
"                    ] _ _ _ _ _ _ _ _ 4.g.g.g.d.%.[ _ _ _ 4.s.$._ _ _ _ 1.g.g.d.:.m k r r B N B t V Z V l x W K                 ",
"                    ] _ _ _ _ _ _ _ _ _ [ ,.>.[ _ _ _ _ _ _ _ _ _ _ _ _ [ >.<.M j B Z G Z V t w r A n.Z Z B j ) ;               ",
"                    ` _ _ _ _ _ _ _ _ _ _ _ _ _ _ _ _ _ _ _ _ _ _ _ _ _ Q b j w w Z B A A A Z B Z n.G Z t e q f 7               ",
"                    K _ _ _ _ _ _ _ _ _ _ _ _ _ _ _ _ _ _ _ _ _ _ _ _ W z l r r e t Z x.n.V.A A G n.A Z t w t x !               ",
"                    * _ _ _ _ _ _ _ _ _ _ _ _ [ $.>.#._ _ _ _ _ _ _ Y j q e t t t A b.V.J.V.Z G V.b.G x.e r r z I               ",
"                    < _ _ _ _ _ _ _ _ _ _ _ _ 4.g.g.4._ _ _ _ _ _ Y j B t t G A t x.x.A.H.n.Z x.V.x.b.A r t B x 4               ",
"                    5 ) _ _ _ _ _ _ _ _ _ _ _ q.g.g.d.#._ _ _ _ b j e r G G G x.Z b.b.H.A.A Z n.V.V.n.t A Z B c ;               ",
"                      ( _ _ _ _ _ _ _ _ _ _ _ >.s.s.>._ _ _ _ Y j r r Z m.x.G G Z n.n.H.V.V x.V.S.n.x.Z V.A q d                 ",
"                      ( _ _ _ _ _ _ _ _ _ _ _ _ _ _ _ _ _ _ Y j B r V V.V.n.b.Z G n.n.A.A Z V.m.n.I.Z M.J.Z 0 s                 ",
"                      ( _ _ _ _ _ $.4.q.$._ _ _ _ _ _ _ _ Y j V V V t V.V.A.b.Z M.b.A.M.t V.V.V.n.x.Z H.x.B 0 =                 ",
"                      0.4.$._ _ _ 4.g.g.4._ _ _ _ _ _ _ Q k r t Z G t M.H.I.x.A V.n.V.G b.Z.m.G A V S.S.e N i                   ",
"                      w.g.g.,._ _ q.g.g.d._ _ _ _ _ _ _ z w V B C b.G I.J.U.A n.A.n.b.M.U.A.m.G Z B.H.V B N u                   ",
"                      e.g.f.f.$._ 6.g.g.6._ _ _ _ _ ) g 0 r C G A V.M.H.J.H.A S.S.n.A H.U.m.M.Z n.H.A V V j                     ",
"                      f.f.f.g.1._ 4.g.g.4._ _ _ _ _ Q k l r Z D.M.H.A.I.J.A V.H.U.G n.V.x.V.G A.H.A B A 0                       ",
"                      f.g.f.f.1._ [ 4.4.$._ _ _ _ _ v q w r G I.H.V.H.I.n.S.I.I.n.G n.m.G V.A.V.Z V Z q 0                       ",
"                      f.g.g.g.1._ _ _ _ _ _ _ _ _ Q j w r V A.I.I.M.U.M.M.I.H.M.I.H.H.Z H.H.Z Z Z Z q                           ",
"                      u.g.g.g.>._ _ _ _ _ _ _ _ ) c q r Z Z A.I.L.n.G.A A.V.V.U.A.M.A V.S.Z Z Z B j                             ",
"                      9.g.g.4.[ _ _ _ _ _ _ _ _ W j r t m.V.H.P.;.-.&.F D.V.B.V.A.V.x.n.G A B q j                               ",
"                      0.7.%._ _ _ _ _ _ _ _ _ ) n w t Z V.J.F.=.+./ o.o.X.D I.Z.A b.n.Z B 0 0                                   ",
"                      P [ _ _ _ _ _ _ _ _ _ _ f q e C G A.l.o.+.+.+.+.+.+.+.D x.Z B w 0 0                                       ",
"                      P _ _ _ _ _ _ _ _ _ _ g j r w V Z G &.+.+.+.+.+.+.+.+.^ k 0 0                                             ",
"                      P _ _ _ _ _ _ _ _ ) Y j e t G A.V.n.X.{ o.+.+.+.+.+.+.o.                                                  ",
"                      U _ _ _ _ _ _ ) ) m j l V Z Z.n.x.A S -.o.+.+.+.+.+.+.+.+.                                                ",
"                      U _ _ _ _ _ _ W z q e t t A x.I.G C G I.z.o.+.+.+.+.+.+.o.                                                ",
"                      L _ _ _ _ _ W k w r t Z G V.H.x.t Z n.A.P.*.+.+.+.+.+.+.+./                                               ",
"                      R _ _ _ _ Q z w r V Z G G A V B Z Z m.A.b.j +.+.+.+.+.+.+.+.                                              ",
"                      ( _ _ _ b k w V G m.m.G G C Z Z V b.x.G q     +.+.+.+.+.+.+.                                              ",
"                      L _ W z j r C G G G G G V A Z Z A Z C 0 j     +.+.+.+.+.+.+.+.                                            ",
"                      ( T j l r V G G G Z Z Z G C Z Z b.C q 0       o.+.+.+.+.+.+.o.                                            ",
"                    , W j w w w r t C C G m.G Z A V Z Z 0 0         +.+.+.+.+.+.+.+.                                            ",
"                    , h q t Z G n.Z.m.m.m.G Z G Z C r 0 0           +.+.+.+.+.+.+.+.o.                                          ",
"                    3 k r V G m.A.H.G G b.m.G r Z w 0               +.+.+.+.+.+.+.+.+.                                          ",
"                    2 j w r C G Z C G A.V.C r C q 0                 +.+.+.+.+.+.+.+.+.                                          ",
"                      p q t r t Z Z V Z t e q 0 0                   +.+.+.+.+.+.+.+.+.                                          ",
"                      @ a 0 w e B e l q 0 0                         +.+.+.+.+.+.+.+.+.+.                                        ",
"                        O y 9 i 0 0 0 0                             +.+.+.+.+.+.+.+.+.{                                         ",
"                                                                    +.+.+.+.+.+.+.+.+.+.                                        ",
"                                                                  +.+.+.+.+.+.+.+.+.+.{                                         ",
"                                                                  +.+.+.+.+.+.+.+.+.+.{                                         ",
"                                                                  +.+.+.+.+.+.+.+.+.+.+.                                        ",
"                                                                +.+.+.+.+.+.+.+.+.+.+.o.                                        ",
"                                                              o.+.+.+.+.+.+.+.+.+.+.+.+.                                        ",
"                                                              +.+.+.+.+.+.+.+.+.+.+.+.+.                                        ",
"                                                            o.+.+.+.+.+.+.+.+.+.+.+.+.+.                                        ",
"                                                              +.+.+.+.+.+.+.+.+.+.+.+.                                          ",
"                                                                +.+.+.+.+.+.+.+.+.o.                                            ",
"                                                                    +.o.+.+.+.{                                                 ",
"                                                                                                                                ",
"                                                                                                                                "
};
