/* XPM */
static char *d41be7e7341541acbd5e7fd4a559d13eHOSsNy86DRDcPB4q[] = {
/* columns rows colors chars-per-pixel */
"64 64 210 2 ",
"   c None",
".  c #070808",
"X  c #0A0A09",
"o  c #060807",
"O  c #120F0B",
"+  c #0F140E",
"@  c #15110C",
"#  c #1B140C",
"$  c #101710",
"%  c #23190E",
"&  c #221A11",
"*  c #2A1E11",
"=  c #241312",
"-  c #3B1A16",
";  c #1A2C1D",
":  c #2D2112",
">  c #3A2814",
",  c #391521",
"<  c #243E21",
"1  c #591B17",
"2  c #431A16",
"3  c #661A18",
"4  c #741918",
"5  c #432C15",
"6  c #4E2D18",
"7  c #4A3217",
"8  c #4A3318",
"9  c #5C3A19",
"0  c #583618",
"q  c #613A17",
"w  c #623B19",
"e  c #6E3B1A",
"r  c #78361C",
"t  c #5C2320",
"y  c #772623",
"u  c #6C2B26",
"i  c #4A1428",
"p  c #284826",
"a  c #2B552D",
"s  c #345027",
"d  c #38632E",
"f  c #296935",
"g  c #376C34",
"h  c #2E7639",
"j  c #397B38",
"k  c #5F471F",
"l  c #65421C",
"z  c #6A441B",
"x  c #6A4A1D",
"c  c #764B1D",
"v  c #74531E",
"b  c #564A30",
"n  c #655623",
"m  c #634728",
"M  c #477C36",
"N  c #576E30",
"B  c #637232",
"V  c #31385D",
"C  c #7F425A",
"Z  c #554472",
"A  c #71447B",
"S  c #58494B",
"D  c #871C1B",
"F  c #9B1D1E",
"G  c #A31E1E",
"H  c #BA1B1E",
"J  c #85281D",
"K  c #92231E",
"L  c #84371D",
"P  c #A7341F",
"I  c #832422",
"U  c #8D2423",
"Y  c #9A2E25",
"T  c #A72526",
"R  c #B42426",
"E  c #B92426",
"W  c #BB2C22",
"Q  c #B43121",
"!  c #AE2C2C",
"~  c #C82327",
"^  c #D52226",
"/  c #D92226",
"(  c #D62129",
")  c #D62C27",
"_  c #CC3121",
"`  c #CA2833",
"'  c #D33228",
"]  c #ED2124",
"[  c #ED2B24",
"{  c #E42524",
"}  c #ED3224",
"|  c #EC3A24",
" . c #8A411D",
".. c #81561E",
"X. c #845C1F",
"o. c #87621F",
"O. c #845825",
"+. c #B34621",
"@. c #BC5529",
"#. c #B3502C",
"$. c #8E6220",
"%. c #956B21",
"&. c #997423",
"*. c #857C27",
"=. c #A87924",
"-. c #AE7E2D",
";. c #CE4629",
":. c #EE4324",
">. c #EE4B24",
",. c #EE5524",
"<. c #EE5B22",
"1. c #DA6F25",
"2. c #EF6224",
"3. c #EE6B25",
"4. c #EF6928",
"5. c #EF7321",
"6. c #EF7625",
"7. c #F07825",
"8. c #B31B5C",
"9. c #962C55",
"0. c #AC2F4C",
"q. c #943960",
"w. c #901C4C",
"e. c #DC1B74",
"r. c #CE196C",
"t. c #EA1C79",
"y. c #D92A78",
"u. c #D72474",
"i. c #D93465",
"p. c #E72779",
"a. c #975B70",
"s. c #B04C75",
"d. c #976575",
"f. c #EF675E",
"g. c #EF7858",
"h. c #F07F50",
"j. c #EB4E6C",
"k. c #EF5965",
"l. c #ED4673",
"z. c #C6544D",
"x. c #37843D",
"c. c #47863A",
"v. c #46923D",
"b. c #5A9239",
"n. c #6B9C3B",
"m. c #5BA03F",
"M. c #6CAA3F",
"N. c #368D42",
"B. c #339442",
"V. c #36AA49",
"C. c #38A847",
"Z. c #37B24A",
"A. c #499A40",
"S. c #4CA242",
"D. c #54B947",
"F. c #53B647",
"G. c #56AC42",
"H. c #6EBD44",
"J. c #6CB142",
"K. c #51817D",
"L. c #5FA264",
"P. c #788776",
"I. c #969038",
"U. c #B88926",
"Y. c #A49629",
"T. c #AD8227",
"R. c #87A83C",
"E. c #B4B920",
"W. c #F1961F",
"Q. c #F1AC1E",
"!. c #F1A21E",
"~. c #F2BA1E",
"^. c #CB9A29",
"/. c #CD8B2E",
"(. c #F18C2A",
"). c #F08821",
"_. c #F09220",
"`. c #F1952B",
"'. c #F19B24",
"]. c #EF8B26",
"[. c #DBA72A",
"{. c #F2AD2C",
"}. c #F1A22C",
"|. c #EEBB2E",
" X c #E8B52D",
".X c #F3BF2E",
"XX c #F2B32D",
"oX c #ECB230",
"OX c #DADA1E",
"+X c #F2CA1C",
"@X c #F2C61D",
"#X c #F2DB1B",
"$X c #F2D11C",
"%X c #DDE11E",
"&X c #F3E31B",
"*X c #F3EC1A",
"=X c #C8CA2E",
"-X c #8F9B64",
";X c #EA9445",
":X c #F1A044",
">X c #394B8B",
",X c #3B519C",
"<X c #3C54A5",
"1X c #3F5BA0",
"2X c #4A519A",
"3X c #644885",
"4X c #55738B",
"5X c #4352A1",
"6X c #997780",
"7X c #C16A8B",
/* pixels */
"                                                                                                                                ",
"                                                              ! !                                                               ",
"                                                            ` E E `                                                             ",
"                                                            ( E E (                                                             ",
"                                                          ` U U E ( `                                                           ",
"                                                          ` ( y E / `                                                           ",
"                                                          a.( R ! T 0.          ' ~ u +.                                        ",
"                                              Y           3X( R t ~ 3X      @.( ( U ~                                           ",
"                                              I ~ )     <X5X9.R T 0.5X    H.@./ T y (                                           ",
"                                              ( I ( (   <X<X2X! ! 2X<X5XH.H.! E y / )                                           ",
"                                              R y R ~ 1.P.,XV Z Z <X<XK.H.R.y U ( ( ;.                                          ",
"                                              ^ ~ I I 1.=X<X,XV ,X<X<XL.H.I.t ~ ` -.                                            ",
"                                              1.) T u 1.%X4X5X>X>X<X5XH.H.B O.I.H.H.                                            ",
"                                              %X[.' J U.%X-X<X>X>X<X4XH.m.d M M.H.                                              ",
"                                                %X=X-.Y.OXY.S b m S B n.M M.H.H.                                                ",
"                                                %XE.*.c c $.-.U.U.U.=.O.l B M.                                                  ",
"                                                  &.l &. X.X.X.X.X.X.X.X[...w                                                   ",
"                                                q ..^..X.X.X.X.X.X.X.X.X.X.X-.z                                                 ",
"                                              q X. X.X.X.X.X.X.X.X.X.X.X.X.X.XU.q                                               ",
"                                              z [..X.X.X.X.X.X.X.X.X.X.X.X.X.X.X&.q                                             ",
"                                            l ^..X.X.X.X.X.X.X.X.X.X.X.X.X.X.X.X X..                                            ",
"                                            $..X.X.X.X.X.X.X.X.X.X.X.X.X.X.X.X.X.XT.q                                           ",
"                                          w U..X.X.X.X.X.X.X.X.X.X.X.X.X.X.X.X.X.X[.l                                           ",
"                                          e  X.X.X.X.X.X.X.X.X.X.X.X.X.X.X.X.X.X.X.X$.w                                         ",
"                                        q X..X.X.X.X.X.X.X.X.X.X.X.X.X.X.X.X.X.X.X.X^.9                                         ",
"                                        q U..X.X.X.X.X.X.X.X.X.X.X.X.X.X.X.X.X.X.X.X|.e                                         ",
"                                        q [..X.XXX(.2.4.'..X.X.X.X.X.X{.(.4.7.}..X.X.X..                                        ",
"                                        q .X.X(.:.[ <.7.<.2._..X.XXX6.3.7.3.| [ ,.{..X%.                                        ",
"                                        z .X(.] [ {.*X*X*X+X<.>.<.} W.*X*X*X#X,.] ,..X=.                                        ",
"                                        x {.} [ !.*X*X*X*X*X*X@XQ.$X*X*X*X*X*X#X<.] 7.=.                                        ",
"                                        c 2.] 5.*X*X*X*X*X*X*X*X*X*X*X*X*X*X*X*X$X} [ =.                                        ",
"                                    4 J c [ [ XXW.>.} :.7.+X*X*X*X*X&X~.5.<.<.W.+X2.] +.J T 4                                   ",
"                                  F { ^  .] [ :.] ] ] ] ] | Q.*X*X&X5.[ ] ] ] ] | :.] W Q ] { 1                                 ",
"                                  { ] ^  .] ] D 1 2 2 1 3 D { ~.*X5.~ K 4 4 4 4 D / ] W Q ] ] W                                 ",
"                                  ^ ] / L ] } | ~ H H H H H <.@X*XW._ G F G G G H { ] W Q ] ] K                                 ",
"                                  D ] J r [ [ $X<.] ] ] ] W.&X*X*X*X~.} ] ] ] ] 5.5.] P K 4 ~ %                                 ",
"                                    1 = q P ] W.&X+XQ.~.*X*X*X*X*X*X*X&XW.W.W.#X#X:.] L - =                                     ",
"                                          e [ } +X*X*X*X*X*X*X_.2.#X*X*X*X*X*X*X).[ _ q @                                       ",
"                                      X   q +.{ ,.+X*X*X*X#XW.:.:.,.+X*X*X*X&X).] {  .5                                         ",
"                                          : c 3.] :.5.W.).<.6.`.5.].,.).W._.<.[ } @.q                                           ",
"                                          + q =.`.| [ [ | `..X`.2..X}.>.[ [ [ ,.oXc                                             ",
"                                              9 U.XXXXXX.X.X.X4.:.`..X.X{.}.{. XO.q                                             ",
"                                              q z ^..X.X.X.X.X.XXX.X.X.X.X.XXX%.q x w q                                         ",
"                                        q e l l 0 9 U..X.X.X.X.X.X.X.X.X|.[.O.5 5 9 z l e                                       ",
"                                    w w z z > # @ O > ^.|.:Xh.g.f.g.;X.XoXx O X X X : l l q                                     ",
"                                      w w > @ X X X = z.p.t.e.u.u.e.u.t.j.u X X X X & > 9 q w                                   ",
"                                    q q 5 @ . X X X w.8.w.s.s.7X7X7Xs.9.8.e.i X X X X 5 w w                                     ",
"                                      w l > . X X , t.q.d.a.d.d.d.d.a.d.a.r.8.X X X O 0 x l                                     ",
"                                    q z 8 X . X . , i.p.e.y.y.y.y.y.y.y.t.t.0.@ X X X : 9 w q                                   ",
"                                    q w z # . . X @ v `.g.f.k.j.l.l.j.k.g./.6 X X X # > l w                                     ",
"                                      w 9 * X . X X # 0 %.U.^.^.^.^.^.-.v 5 X X . X * 9 9                                       ",
"                                      q l 9 0 @ . . X X @ # % * : : & = @ X . X & 5 9 q q                                       ",
"                                        9 w 9 5 * * X X X o X . X X . . o O # : 8 w z                                           ",
"                                          q 0 l m m 5 6 5 * * & > % @ @ % 6 0 9 x w                                             ",
"                                            s N b.B k 0 l 9 q 0 l w x l w w n n l                                               ",
"                                          p S.D.G.b.G.M q q   q     k M N n N c.c.g                                             ",
"                                        < v.S.D.D.A.g S.>           g Z.b x.S.Z.V.N.                                            ",
"                                        j v.F.D.A.    j             h Z.    C.C.V.B.h                                           ",
"                                        M F.A.D.d     A.$           f V.    f V.g V.a                                           ",
"                                        c.F.A.S.$     c.a           f N.    h B.h C.a                                           ",
"                                        j S.m.j ;     a ;                   f B.N.x.                                            ",
"                                        p g j v.                              N.h                                               ",
"                                            a p                                                                                 ",
"                                                                                                                                "
};
