/* XPM */
static char *_863c2dc0bdc44a3bb1d86f026746cb2wTbyvVQuShhGmgTc[] = {
/* columns rows colors chars-per-pixel */
"64 64 121 2 ",
"   c None",
".  c #050707",
"X  c #060909",
"o  c #0A0C0C",
"O  c #0F1111",
"+  c #131414",
"@  c #171818",
"#  c #1C1C1C",
"$  c #1F2020",
"%  c #242525",
"&  c #2B2C2C",
"*  c #343434",
"=  c #373838",
"-  c #3C3D3D",
";  c #3F3F40",
":  c #3F4141",
">  c #434344",
",  c #474748",
"<  c #474848",
"1  c #4B4B4C",
"2  c #4F4F50",
"3  c #535454",
"4  c #575857",
"5  c #575758",
"6  c #575858",
"7  c #5B5D5C",
"8  c #5E605F",
"9  c #5F6160",
"0  c #616362",
"q  c #676768",
"w  c #686668",
"e  c #676968",
"r  c #6A6A6B",
"t  c #727373",
"y  c #79777A",
"u  c #7C7B7C",
"i  c #7E7C80",
"p  c #817F82",
"a  c #848384",
"s  c #878488",
"d  c #888689",
"f  c #8C8B8C",
"g  c #918F92",
"h  c #939293",
"j  c #979598",
"k  c #9A979B",
"l  c #9C9A9D",
"z  c #9F9CA0",
"x  c #A09EA1",
"c  c #A4A3A4",
"v  c #A8A6A8",
"b  c #ABAAAC",
"n  c #B0ADAF",
"m  c #B4B3B5",
"M  c #BAB7BB",
"N  c #BAB8BC",
"B  c #BBB8BC",
"V  c #BBB9BC",
"C  c #BBB9BD",
"Z  c #BCB9BD",
"A  c #BCBABD",
"S  c #BDBABD",
"D  c #BCBABE",
"F  c #BDBABE",
"G  c #BDBBBE",
"H  c #BEBBBF",
"J  c #BEBCBF",
"K  c #BFBCBF",
"L  c #BEBDBF",
"P  c #BFBDBF",
"I  c #BBB9BB",
"U  c #BFBCC0",
"Y  c #BFBDC0",
"T  c #BFBEC0",
"R  c #C0BDC1",
"E  c #C0BEC1",
"W  c #C0BFC1",
"Q  c #C1BFC2",
"!  c #C2C1C2",
"~  c #C2C0C3",
"^  c #C3C1C4",
"/  c #C4C1C4",
"(  c #C4C2C5",
")  c #C5C2C5",
"_  c #C4C3C5",
"`  c #C5C3C6",
"'  c #C6C3C7",
"]  c #C5C4C7",
"[  c #C6C4C6",
"{  c #C6C4C7",
"}  c #C7C4C7",
"|  c #C6C5C7",
" . c #C7C5C8",
".. c #C7C4C9",
"X. c #C7C6C9",
"o. c #C8C6C9",
"O. c #C9C6CA",
"+. c #C9C8C9",
"@. c #C8C8CA",
"#. c #C9C8CA",
"$. c #C9C8CB",
"%. c #CAC8CB",
"&. c #CBC9CC",
"*. c #CBCACC",
"=. c #CCCBCD",
"-. c #CDCBCE",
";. c #D0CED2",
":. c #D1CFD2",
">. c #D1D0D2",
",. c #D1D1D2",
"<. c #D2D0D3",
"1. c #D3D2D4",
"2. c #D4D3D6",
"3. c #D6D6D7",
"4. c #D7D7D8",
"5. c #D8D7D9",
"6. c #D9D9DA",
"7. c #DADADB",
"8. c gray86",
"9. c #DBDBDC",
"0. c gainsboro",
/* pixels */
"                                                                                                                                ",
"                                                                                                                                ",
"                                                                                                                                ",
"                                                                                                                                ",
"                                                                                                                                ",
"                                                                                                                                ",
"                                                                                                                                ",
"                                                                                                                                ",
"                                                                                                                                ",
"                                                                                                                                ",
"                                                                                                                                ",
"                                                                                                                                ",
"                                                                                                                                ",
"                                                                                                                                ",
"                                                        8.4.4.5.3.:.>.5.8.8.9.0.                                                ",
"                                                ` o.5.4.} F V M M M M F R ..&.&.@...} ^ ..                                      ",
"                                      >.o.F V M M M R ..I M M M M M M M M M M M M M M M M M F ..>.                              ",
"                                @.` F M M M M M M M V @.` F M M M M M M M M M M M M M M M M M M I L } @.                        ",
"                            2.U V M M M M M M M M M M V R V M M M M M M M M M M M M M M M M M M M M M F R                       ",
"                          -.F M M M M M M M M M M M M M M M M M M M M M M M M M M M M M M M M M M M M F I v                     ",
"                      9.^ V M M M M M M M M M M M M M M M M M M M M M M M M M M M M M M M M M M M M F v s i                     ",
"                    >.1.` F M M M M M M M M M M M M M M M M M M M M M M M M M M M M M M M M M M M M f u u u a                   ",
"                  I M M F -.M M M M M M M M M M M M M M M M M M M M M M M M M M M M M M M M B F c a u u u u u                   ",
"                  b M M M ` ..M M M M M M M M M M M M M M M M M M M M M M M M M M M M M M F n a u u u u u u u g                 ",
"                b c I I M M V M M M M M M M M M M M M M I M M M M M M M M M M M M M M F R l u u u u u u u u p l                 ",
"                c v I I M M M M M M M M M M M M M M M M M M M M M M M M M M M M M R -.` M u u u u u u u u a j l x V             ",
"              c l L I M M M M M M M M M M M M M M F B F F I I I M M M M M M M U R R c l b s u u u u u u i k l l l x             ",
"            c z m V M M M M M M M M M M M M B Q M b b j k I F I M M F Q o.$.R M v x l l l c a u u u u t e r t u f r - 2         ",
"            z c ! I M M M M M M M M M M V ` R x l l h 9 0 q f I $.$.' M v l l l l l l k l l c u a f 0 0 9 0 0 0 0 % . o         ",
"          c l m F I M M M M M M M F ^ } U b l l l z e 0 9 8 8 g M l l l l l l l l l l l l l c h a t 9 0 0 0 9 0 0 < . . @       ",
"        m z b ! M M M M M M M F ' R l g z l l l l t 0 0 0 0 0 b l l l k l l l l l l l l l l a e t r 0 0 0 9 9 0 0 3 O . . o     ",
"        c l T I M M M M V U M b h p a s l l l z a 0 0 0 9 0 d x l l l l k l l l l l l l l d q 0 e e 0 9 0 9 0 0 0 6 @ . . . @   ",
"      v l b F M M M B B M l g p p p p s l l l f 0 9 9 0 9 9 z l l l k z k z k k l l l l p 0 0 0 0 e 0 0 9 0 9 9 0 3 O X . . O   ",
"    v x b K M M M B F m a p p p p p p s k l l q 0 0 0 0 0 9 l l l l z k z k k z l l l p 0 0 0 0 0 f 0 0 0 0 0 0 8 * . . . X #   ",
"    l v L I M M B ` x a p p p p p p p a k l a 9 0 0 0 9 0 9 h l k l k l z k z k l z p 0 0 0 e 0 0 r $ : 4 4 1 * $ X X . X       ",
"  z l M M I M F ` f p p p p p p p p p s l l 0 8 9 0 0 9 0 0 f z l l l l k z k z x p 0 0 0 0 0 0 0 4 X X X X X . . . o           ",
"  d y u l b Q L g p p p p p p p p u r 5 4 3 1 3 6 7 8 9 9 9 t b x k k x k k x x p 0 0 0 0 0 0 0 0 3 . . . . . + $               ",
"  e 8 8 0 r g F a p p p p u p y q 2 , > > > > > , > , < 3 4 3 n k x k k z k x t 0 0 0 0 0 0 0 0 8 $ X X X X *                   ",
"  e 9 9 0 0 0 e a p p p r , > > > > > > ; > > > > > > > > - o v k x k x z g * . + & = ; > ; - & + . . X O                       ",
"    8 r 0 0 0 0 0 t p y 1 > > > > > > > % ; > > > > > > > * o c x g i w 8 * . . . . . . . . . . X X X #                         ",
"    # & 8 8 9 9 9 0 0 2 > > > > > > > - + + - : - > - : - * o - ; > ; > : - X X . . . . X o o o X X X                           ",
"        O % = 1 7 9 3 > > > > > > - & + X . + # @ @ + o . . . o % % % # @ + X X . . o $ & =                                     ",
"              @ @ = < > > > : % o o X X . X . . X . . X X @ $ # % $ o . X X X X o @                                             ",
"                    # & % % O +           = * % %                                                                               ",
"                                                                                                                                ",
"                                                                                                                                ",
"                                                                                                                                ",
"                                                                                                                                ",
"                                                                                                                                ",
"                                                                                                                                ",
"                                                                                                                                ",
"                                                                                                                                ",
"                                                                                                                                ",
"                                                                                                                                ",
"                                                                                                                                ",
"                                                                                                                                ",
"                                                                                                                                ",
"                                                                                                                                ",
"                                                                                                                                ",
"                                                                                                                                ",
"                                                                                                                                ",
"                                                                                                                                ",
"                                                                                                                                ",
"                                                                                                                                "
};
